<svg width="1000" height="800" viewBox="0 0 1000 800" fill="none" xmlns="http://www.w3.org/2000/svg">
<path d="M537.428 37.5073V162.532C537.428 183.317 520.706 200.039 499.922 200.039C479.137 200.039 462.416 183.317 462.416 162.532V37.5073C462.416 16.722 479.137 0 499.922 0C520.706 0 537.428 16.722 537.428 37.5073ZM313.955 110.959L388.967 185.974C403.657 200.664 403.657 224.419 388.967 238.953C374.277 253.487 350.524 253.643 335.99 238.953L260.822 164.095C246.132 149.404 246.132 125.65 260.822 111.115C275.512 96.5813 299.266 96.4251 313.799 111.115L313.955 110.959ZM739.022 164.095L664.01 239.109C649.32 253.8 625.566 253.8 611.033 239.109C596.499 224.419 596.343 200.664 611.033 186.13L686.045 111.115C700.735 96.4251 724.488 96.4251 739.022 111.115C753.555 125.806 753.712 149.56 739.022 164.095ZM295.671 364.759C297.078 370.697 302.235 375.073 308.329 375.073H389.592C394.437 375.073 398.969 377.886 401 382.418L477.106 550.107C486.013 569.642 513.674 569.642 522.582 550.107L598.844 382.418C600.875 377.886 605.251 375.073 610.252 375.073H691.514C697.609 375.073 702.766 370.697 704.173 364.759C720.113 298.965 779.341 250.049 849.977 250.049C932.802 250.049 1000 317.249 1000 400.078C1000 445.556 979.841 486.189 947.961 513.694C941.241 519.476 941.241 530.572 947.961 536.355C979.841 563.86 1000 604.649 1000 649.971C1000 732.799 932.802 800 849.977 800C779.341 800 720.113 751.084 704.173 685.29C702.766 679.351 697.609 674.976 691.514 674.976H308.486C302.391 674.976 297.234 679.351 295.827 685.29C279.888 751.084 220.659 800 150.023 800C67.198 800 0 732.799 0 649.971C0 604.493 20.1594 563.86 52.0394 536.355C58.7592 530.572 58.7592 519.476 52.0394 513.694C20.1594 486.189 0 445.399 0 400.078C0 317.249 67.198 250.049 150.023 250.049C220.659 250.049 279.888 298.965 295.827 364.759H295.671Z" fill="url(#paint0_linear_2380_60)"/>
<defs>
<linearGradient id="paint0_linear_2380_60" x1="500" y1="0" x2="500" y2="990" gradientUnits="userSpaceOnUse">
<stop offset="0.218746" stop-color="#FFB75C"/>
<stop offset="1" stop-color="#694C27"/>
</linearGradient>
</defs>
</svg>
