<svg width="1008" height="1008" viewBox="0 0 1008 1008" fill="none" xmlns="http://www.w3.org/2000/svg">
<g filter="url(#filter0_d_2870_4)">
<path d="M504 0C572.945 0 629 56.0547 629 125C629 193.945 572.945 250 504 250C435.055 250 379 193.945 379 125C379 56.0547 435.055 0 504 0ZM691.5 609.375C691.5 658.203 666.695 701.172 629 726.367V906.25C629 958.008 587.008 1000 535.25 1000H472.75C420.992 1000 379 958.008 379 906.25V726.367C341.305 701.172 316.5 658.203 316.5 609.375V531.25C316.5 427.734 400.484 343.75 504 343.75C607.516 343.75 691.5 427.734 691.5 531.25V609.375ZM191.5 62.5C251.852 62.5 300.875 111.523 300.875 171.875C300.875 232.227 251.852 281.25 191.5 281.25C131.148 281.25 82.125 232.227 82.125 171.875C82.125 111.523 131.148 62.5 191.5 62.5ZM222.75 531.25V593.75C222.75 657.227 246.383 715.039 285.25 759.18V906.25C285.25 908.594 285.25 911.133 285.445 913.477C268.844 928.32 246.969 937.5 222.75 937.5H160.25C108.492 937.5 66.5 895.508 66.5 843.75V733.203C29.1953 711.719 4 671.289 4 625V562.5C4 458.984 87.9844 375 191.5 375C216.305 375 239.937 379.883 261.617 388.477C237.008 430.273 222.75 479.102 222.75 531.25ZM722.75 906.25V759.18C761.617 715.234 785.25 657.227 785.25 593.75V531.25C785.25 479.102 770.992 430.469 746.383 388.477C768.063 379.687 791.695 375 816.5 375C920.016 375 1004 458.984 1004 562.5V625C1004 671.289 978.805 711.719 941.5 733.203V843.75C941.5 895.508 899.508 937.5 847.75 937.5H785.25C761.227 937.5 739.156 928.516 722.555 913.477C722.555 911.133 722.75 908.594 722.75 906.25ZM816.5 62.5C876.852 62.5 925.875 111.523 925.875 171.875C925.875 232.227 876.852 281.25 816.5 281.25C756.148 281.25 707.125 232.227 707.125 171.875C707.125 111.523 756.148 62.5 816.5 62.5Z" fill="url(#paint0_linear_2870_4)"/>
</g>
<defs>
<filter id="filter0_d_2870_4" x="0" y="0" width="1008" height="1008" filterUnits="userSpaceOnUse" color-interpolation-filters="sRGB">
<feFlood flood-opacity="0" result="BackgroundImageFix"/>
<feColorMatrix in="SourceAlpha" type="matrix" values="0 0 0 0 0 0 0 0 0 0 0 0 0 0 0 0 0 0 127 0" result="hardAlpha"/>
<feOffset dy="4"/>
<feGaussianBlur stdDeviation="2"/>
<feComposite in2="hardAlpha" operator="out"/>
<feColorMatrix type="matrix" values="0 0 0 0 0 0 0 0 0 0 0 0 0 0 0 0 0 0 0.25 0"/>
<feBlend mode="normal" in2="BackgroundImageFix" result="effect1_dropShadow_2870_4"/>
<feBlend mode="normal" in="SourceGraphic" in2="effect1_dropShadow_2870_4" result="shape"/>
</filter>
<linearGradient id="paint0_linear_2870_4" x1="504" y1="62.5" x2="504" y2="1000" gradientUnits="userSpaceOnUse">
<stop stop-color="#FFB75C"/>
<stop offset="1" stop-color="#996E37"/>
</linearGradient>
</defs>
</svg>
