<svg width="1000" height="927" viewBox="0 0 1000 927" fill="none" xmlns="http://www.w3.org/2000/svg">
<path d="M781.297 37.4046L744.274 74.4275L835.114 165.267L925.572 255.725L962.977 218.321L1000 181.298L909.16 90.4581L818.701 -2.64645e-05L781.297 37.4046Z" fill="url(#paint0_linear_2147_8)"/>
<path d="M88.55 92.7481L0 181.298L37.4047 218.702L74.4278 255.725L165.268 164.886L256.108 73.6641L219.467 38.9313C198.856 19.4656 181.298 3.81677 179.772 3.81677C178.627 3.81677 137.405 43.8931 88.55 92.7481Z" fill="url(#paint1_linear_2147_8)"/>
<path d="M424.807 81.6789C204.196 123.664 51.9052 326.336 76.3327 545.038C95.4168 718.321 215.646 861.45 382.059 909.924C624.426 980.153 874.809 822.519 918.321 572.137C922.901 545.038 924.046 522.901 922.519 482.824C919.847 414.122 909.542 372.519 880.534 313.74C825.191 202.29 725.19 120.61 604.197 88.9308C557.632 77.0987 469.082 73.2819 424.807 81.6789ZM589.693 194.656C693.892 227.481 772.137 305.725 805.343 410.305C818.32 451.145 820.229 528.626 809.542 574.427C787.404 667.939 726.335 743.893 638.93 786.641C513.739 848.092 373.28 824.428 274.425 725.572C172.898 624.046 150.761 478.244 218.318 351.526C262.593 267.557 338.547 209.923 431.678 188.931C468.701 180.534 554.579 183.587 589.693 194.656Z" fill="url(#paint2_linear_2147_8)"/>
<path d="M454.201 393.515V519.851L467.178 532.828L480.155 545.805H593.133H706.11V500.004V454.202H625.957H545.804V360.691V267.179H500.003H454.201V393.515Z" fill="url(#paint3_linear_2147_8)"/>
<defs>
<linearGradient id="paint0_linear_2147_8" x1="872.137" y1="-3.05176e-05" x2="872.137" y2="255.725" gradientUnits="userSpaceOnUse">
<stop stop-color="#FFB75C"/>
<stop offset="0.721154" stop-color="#996E37"/>
</linearGradient>
<linearGradient id="paint1_linear_2147_8" x1="128.054" y1="3.81677" x2="128.054" y2="255.725" gradientUnits="userSpaceOnUse">
<stop stop-color="#FFB75C"/>
<stop offset="0.721154" stop-color="#996E37"/>
</linearGradient>
<linearGradient id="paint2_linear_2147_8" x1="498.46" y1="77.1614" x2="498.46" y2="926.689" gradientUnits="userSpaceOnUse">
<stop stop-color="#FFB75C"/>
<stop offset="0.721154" stop-color="#996E37"/>
</linearGradient>
<linearGradient id="paint3_linear_2147_8" x1="580.156" y1="267.179" x2="580.156" y2="545.805" gradientUnits="userSpaceOnUse">
<stop stop-color="#FFB75C"/>
<stop offset="0.721154" stop-color="#996E37"/>
</linearGradient>
</defs>
</svg>
