<svg width="1000" height="778" viewBox="0 0 1000 778" fill="none" xmlns="http://www.w3.org/2000/svg">
<path d="M466.84 92.3669L264.41 317.381C256.424 326.236 256.771 339.952 265.278 348.459C318.229 401.414 404.167 401.414 457.118 348.459L512.326 293.247C519.618 285.955 528.819 281.962 538.194 281.268C550 280.226 562.153 284.219 571.181 293.247L877.778 597.26L1000 500.031V0L805.556 111.118L764.236 83.5122C736.806 65.2819 704.688 55.559 671.701 55.559H549.479C547.569 55.559 545.486 55.559 543.576 55.7327C514.236 57.2953 486.632 70.4905 466.84 92.3669ZM202.431 261.648L387.847 55.559H319.097C274.826 55.559 232.465 73.0949 201.215 104.347L194.444 111.118L0 0V500.031L271.528 726.261C311.458 759.596 361.806 777.826 413.715 777.826H440.972L428.819 765.673C412.5 749.352 412.5 722.962 428.819 706.815C445.139 690.668 471.528 690.495 487.674 706.815L558.854 778H574.479C607.639 778 640.104 770.534 669.618 756.644L623.264 710.114C606.944 693.793 606.944 667.403 623.264 651.256C639.583 635.109 665.972 634.936 682.118 651.256L737.674 706.815L768.056 676.431C783.507 660.979 788.021 638.582 781.25 618.962L541.84 381.447L515.972 407.317C430.382 492.913 291.84 492.913 206.25 407.317C166.319 367.384 164.757 303.318 202.431 261.475V261.648Z" fill="url(#paint0_linear_3106_85)"/>
<defs>
<linearGradient id="paint0_linear_3106_85" x1="500" y1="223.972" x2="500" y2="778" gradientUnits="userSpaceOnUse">
<stop stop-color="#FFB75C"/>
<stop offset="1" stop-color="#694C27"/>
</linearGradient>
</defs>
</svg>
