<svg width="1000" height="1000" viewBox="0 0 1000 1000" fill="none" xmlns="http://www.w3.org/2000/svg">
<g clip-path="url(#clip0_2574_116)">
<path d="M812.5 834.766C926.758 748.828 1000 616.797 1000 468.75C1000 209.961 776.172 0 500 0C223.828 0 0 209.961 0 468.75C0 616.797 73.2422 748.828 187.5 834.766V906.25C187.5 958.008 229.492 1000 281.25 1000H343.75V921.875C343.75 895.898 364.648 875 390.625 875C416.602 875 437.5 895.898 437.5 921.875V1000H562.5V921.875C562.5 895.898 583.398 875 609.375 875C635.352 875 656.25 895.898 656.25 921.875V1000H718.75C770.508 1000 812.5 958.008 812.5 906.25V834.766ZM187.5 500C187.5 431.055 243.555 375 312.5 375C381.445 375 437.5 431.055 437.5 500C437.5 568.945 381.445 625 312.5 625C243.555 625 187.5 568.945 187.5 500ZM687.5 375C756.445 375 812.5 431.055 812.5 500C812.5 568.945 756.445 625 687.5 625C618.555 625 562.5 568.945 562.5 500C562.5 431.055 618.555 375 687.5 375Z" fill="url(#paint0_linear_2574_116)"/>
</g>
<defs>
<linearGradient id="paint0_linear_2574_116" x1="500" y1="0" x2="500" y2="1546.5" gradientUnits="userSpaceOnUse">
<stop stop-color="#FFB75C"/>
<stop offset="0.877624" stop-color="#694C27"/>
</linearGradient>
<clipPath id="clip0_2574_116">
<rect width="1000" height="1000" fill="white"/>
</clipPath>
</defs>
</svg>
