<svg width="1000" height="1093" viewBox="0 0 1000 1093" fill="none" xmlns="http://www.w3.org/2000/svg">
<path d="M260.404 134.668C138.422 208.121 38.7948 269.173 38.5518 270.127C38.5518 272.75 250.928 400.816 252.629 399.147C255.545 396.047 483.472 2.07023 482.743 1.35478C482.257 1.11629 382.387 60.9759 260.404 134.668Z" fill="#FFB75C"/>
<path d="M517.251 1.34978C517.251 3.01917 745.422 396.519 747.852 399.142C749.796 401.05 961.929 272.984 961.929 270.122C961.929 269.168 863.273 208.831 742.749 136.094C491.008 -16.2981 517.251 -0.558095 517.251 1.34978Z" fill="#FFB75C"/>
<path d="M396.27 229.802L293.727 406.757L396.999 407.473C453.859 407.711 546.682 407.711 603.543 407.473L706.815 406.757L604.272 229.802C547.654 132.261 501 52.6076 500.271 52.6076C499.542 52.6076 452.887 132.261 396.27 229.802Z" fill="#FFB75C"/>
<path d="M16.4468 310.637C16.4468 314.93 12.3159 432.026 7.45603 570.585C2.59617 709.145 -0.805737 821.948 0.166236 820.994C1.13821 820.04 48.5219 741.579 105.625 646.423C162.486 551.268 214.486 464.698 221.047 453.966L232.711 434.411L127.981 370.497C70.3912 335.44 21.7926 305.629 19.8487 304.675C17.4187 303.244 16.6898 304.675 16.4468 310.637Z" fill="#FFB75C"/>
<path d="M876.137 368.615C817.576 404.388 769.464 434.199 769.221 434.914C768.735 436.107 993.017 811.004 998.849 818.874C1001.28 822.213 1000.06 768.077 993.26 569.658C988.157 430.144 983.783 313.287 983.54 309.948C982.568 303.986 978.438 306.371 876.137 368.615Z" fill="#FFB75C"/>
<path d="M294.664 450.151C297.337 457.067 499.021 803.823 500.236 803.823C501.451 803.823 703.135 457.067 705.808 450.151C707.266 446.335 694.873 446.096 500.236 446.096C305.599 446.096 293.206 446.335 294.664 450.151Z" fill="#FFB75C"/>
<path d="M154.693 645.968L51.1777 824.115L155.665 824.831C213.011 825.069 306.32 825.069 363.181 824.831L466.21 824.115L363.91 647.637C307.535 550.574 260.881 470.443 259.909 469.489C258.937 468.535 211.553 547.95 154.693 645.968Z" fill="#FFB75C"/>
<path d="M669.153 591.832C629.302 660.515 582.648 740.884 565.395 770.456L534.292 824.115L639.022 824.831C696.611 825.069 789.921 825.069 846.538 824.831L949.324 824.115L847.51 648.829C791.379 552.482 744.481 472.112 743.509 470.204C742.051 468.058 718.481 506.931 669.153 591.832Z" fill="#FFB75C"/>
<path d="M27.5928 866.085C26.6208 867.516 26.3779 868.947 26.6208 869.424C27.1068 869.663 129.65 920.221 254.305 981.273L480.775 1092.41V977.935V863.462H255.034C97.5748 863.462 28.5648 864.178 27.5928 866.085Z" fill="#FFB75C"/>
<path d="M519.697 978.163V1092.64L569.024 1067.59C595.997 1054 696.839 1002.97 793.064 954.076C889.289 905.425 968.505 865.122 968.991 864.406C969.477 863.929 868.635 863.452 744.951 863.452H519.697V978.163Z" fill="#FFB75C"/>
</svg>
