<svg width="1088" height="1174" viewBox="0 0 1088 1174" fill="none" xmlns="http://www.w3.org/2000/svg">
<g clip-path="url(#clip0_2404_66)">
<path d="M196.955 500.605C199.508 500.378 202.061 500.151 204.69 499.917C207.517 499.677 210.344 499.436 213.171 499.196C216.15 498.936 219.129 498.675 222.108 498.413C231.89 497.556 241.673 496.723 251.457 495.89C254.83 495.602 258.203 495.313 261.576 495.025C277.428 493.67 293.28 492.325 309.134 490.992C327.408 489.456 345.678 487.885 363.946 486.283C378.083 485.046 392.222 483.842 406.364 482.662C414.802 481.958 423.238 481.239 431.672 480.486C439.615 479.777 447.56 479.109 455.509 478.472C458.413 478.232 461.317 477.978 464.219 477.708C481.704 476.09 499.469 474.601 514.395 486.847C526.032 498.299 528.672 510.562 530.521 526.955C529.6 542.889 521.639 555.435 513.425 568.017C505.605 580.287 498.081 592.669 490.926 605.421C483.403 618.794 475.599 631.91 467.582 644.929C461.47 654.863 455.506 664.883 449.624 674.985C443.561 685.396 437.436 695.762 431.294 706.117C429.765 708.695 429.765 708.695 428.205 711.325C426.119 714.841 424.033 718.357 421.947 721.873C416.893 730.394 411.843 738.918 406.793 747.441C404.787 750.826 402.781 754.211 400.775 757.596C399.782 759.271 398.79 760.947 397.767 762.673C381.219 790.598 381.219 790.598 364.671 818.523C363.677 820.201 362.682 821.879 361.658 823.608C359.666 826.969 357.674 830.33 355.682 833.691C350.452 842.516 345.223 851.343 339.998 860.172C338.912 862.006 337.826 863.84 336.707 865.73C334.634 869.231 332.561 872.733 330.489 876.236C329.55 877.823 328.61 879.41 327.642 881.044C326.823 882.428 326.004 883.812 325.16 885.238C322.023 890.486 318.833 895.694 315.647 900.906C319.497 900.598 319.497 900.598 323.424 900.285C347.658 898.355 371.895 896.469 396.136 894.627C408.597 893.678 421.056 892.714 433.514 891.714C445.544 890.749 457.577 889.825 469.613 888.93C474.195 888.581 478.777 888.219 483.357 887.841C489.792 887.312 496.229 886.837 502.668 886.373C504.545 886.206 506.422 886.04 508.355 885.869C522.397 884.94 536.726 886.406 548.368 896.092C559.898 907.726 563.068 919.335 564.154 936.072C564.001 948.905 560.163 956.966 552.849 966.663C537.315 980.226 521.613 981.311 502.364 982.813C499.376 983.069 496.39 983.328 493.403 983.59C485.326 984.289 477.246 984.948 469.165 985.597C460.689 986.284 452.216 987.001 443.743 987.714C429.515 988.906 415.286 990.07 401.055 991.219C384.626 992.547 368.202 993.92 351.779 995.317C337.652 996.518 323.524 997.693 309.394 998.848C300.966 999.537 292.539 1000.23 284.113 1000.95C276.19 1001.63 268.265 1002.27 260.338 1002.89C257.437 1003.13 254.537 1003.37 251.638 1003.62C234.305 1005.14 220.401 1005.71 204.512 996.485C194.094 986.82 189.008 975.978 186.91 961.468C185.832 945.711 191.213 933.087 199.312 920.476C201.024 917.715 202.735 914.952 204.443 912.189C205.802 910.013 205.802 910.013 207.187 907.793C212.145 899.771 216.924 891.62 221.723 883.482C223.775 880.015 225.827 876.548 227.88 873.081C229.418 870.483 229.418 870.483 230.987 867.832C236.026 859.32 241.07 850.81 246.113 842.301C248.119 838.916 250.125 835.531 252.13 832.146C336.374 689.982 336.374 689.983 339.383 684.905C341.388 681.522 343.392 678.139 345.396 674.756C350.428 666.262 355.464 657.77 360.506 649.284C361.522 647.572 362.539 645.86 363.586 644.096C365.457 640.945 367.329 637.794 369.202 634.645C376.219 622.822 383.142 610.933 390.058 599.038C391.092 597.26 392.126 595.483 393.191 593.652C395.726 589.293 398.261 584.934 400.796 580.575C399.736 580.658 398.677 580.74 397.585 580.825C371.758 582.84 345.929 584.819 320.096 586.761C307.603 587.7 295.112 588.652 282.622 589.63C270.565 590.574 258.505 591.487 246.444 592.38C241.847 592.725 237.25 593.081 232.655 593.449C226.209 593.963 219.762 594.437 213.312 594.903C211.421 595.063 209.53 595.222 207.581 595.387C192.037 596.441 178.243 594.429 165.809 582.894C156.483 570.527 152.562 559.161 152.719 543.211C154.476 530.937 158.115 519.696 167.097 511.644C177.125 503.819 184.766 501.666 196.955 500.605Z" fill="url(#paint0_linear_2404_66)"/>
<path d="M784.638 451.363C787.251 451.129 787.251 451.129 789.917 450.891C795.632 450.389 801.35 449.933 807.07 449.481C811.069 449.145 815.067 448.807 819.065 448.467C827.428 447.764 835.793 447.084 844.159 446.421C854.857 445.571 865.548 444.663 876.239 443.738C884.49 443.03 892.743 442.354 900.997 441.686C904.939 441.363 908.881 441.031 912.822 440.689C918.34 440.215 923.86 439.783 929.382 439.361C930.993 439.214 932.605 439.067 934.265 438.916C949.002 437.87 962.435 440.654 974.129 451.503C983.468 463.887 987.347 475.221 987.219 491.186C984.611 505.075 979.964 514.568 972.462 525.936C970.417 529.127 968.375 532.319 966.335 535.513C965.317 537.094 964.298 538.676 963.249 540.305C958.98 547.013 954.908 553.855 950.848 560.718C944.07 572.115 937.146 583.392 930.141 594.62C913.915 620.647 898.318 647.105 882.798 673.645C884.39 673.485 884.39 673.485 886.014 673.321C897.114 672.21 908.218 671.16 919.327 670.145C923.465 669.759 927.602 669.357 931.738 668.94C937.702 668.34 943.669 667.797 949.638 667.265C951.47 667.069 953.302 666.872 955.19 666.67C970.213 665.419 980.846 668.335 992.627 679.022C1001.46 691.031 1007.19 703.48 1006.13 719.207C1003.29 735.454 996.312 746.252 983.954 755.501C979.626 758.035 976.695 758.668 971.806 759.089C970.192 759.238 968.578 759.387 966.915 759.54C965.159 759.681 963.403 759.821 961.594 759.966C958.802 760.213 958.802 760.213 955.955 760.466C949.799 761.007 943.642 761.515 937.484 762.021C933.203 762.384 928.923 762.748 924.642 763.113C915.667 763.874 906.691 764.617 897.713 765.35C886.215 766.291 874.72 767.281 863.227 768.284C854.386 769.048 845.543 769.783 836.699 770.51C832.46 770.863 828.222 771.225 823.986 771.598C818.057 772.116 812.125 772.594 806.192 773.061C804.446 773.222 802.7 773.383 800.9 773.549C788.348 774.474 780.101 772.322 769.53 764.171C758.555 752.144 754.328 741.815 752.747 724.996C754.068 709.062 761.86 696.473 770.093 683.795C772.119 680.606 774.143 677.415 776.166 674.223C777.172 672.642 778.178 671.062 779.215 669.433C783.451 662.71 787.524 655.875 791.585 649.023C798.363 637.627 805.286 626.349 812.291 615.121C820.931 601.272 829.407 587.318 837.766 573.263C843.852 563.052 850.07 552.938 856.271 542.812C853.895 542.989 851.519 543.166 849.071 543.348C840.175 544 831.277 544.596 822.376 545.177C818.539 545.435 814.704 545.707 810.869 545.995C805.327 546.408 799.782 546.768 794.235 547.118C791.704 547.324 791.704 547.324 789.12 547.534C775.477 548.313 761.334 546.498 750.063 537.136C738.545 525.489 735.37 513.897 734.284 497.156C734.436 484.322 738.274 476.261 745.588 466.564C757.915 455.801 769.191 452.519 784.638 451.363Z" fill="url(#paint1_linear_2404_66)"/>
<path d="M458.456 66.6444C461.092 66.4042 461.092 66.4042 463.78 66.1593C469.569 65.6386 475.361 65.1499 481.153 64.665C485.195 64.316 489.238 63.9664 493.28 63.6162C501.748 62.8883 510.218 62.1781 518.689 61.4782C529.514 60.581 540.334 59.6253 551.153 58.6543C559.5 57.9144 567.85 57.2134 576.201 56.5232C580.19 56.1874 584.178 55.8379 588.165 55.474C593.755 54.9681 599.349 54.5171 604.945 54.0788C607.386 53.8402 607.386 53.8402 609.877 53.5968C622.895 52.6687 635.327 54.9451 645.849 64.1303C657.927 76.5791 660.868 86.8892 662.038 104.91C661.525 125.28 648.394 140.892 637.895 156.648C632.89 164.199 628.194 171.941 623.56 179.771C616.716 191.312 609.734 202.735 602.643 214.093C594.003 227.942 585.527 241.895 577.168 255.951C571.082 266.162 564.865 276.276 558.663 286.402C561.156 286.204 563.649 286.006 566.218 285.802C575.546 285.076 584.878 284.419 594.212 283.782C598.237 283.498 602.26 283.195 606.282 282.873C612.093 282.411 617.906 282.018 623.723 281.636C625.495 281.481 627.267 281.325 629.093 281.165C643.306 280.336 657.379 283.251 668.44 293.97C679.282 307.494 680.432 321.209 680.574 338.518C678.654 351.705 672.32 359.249 663.194 367.577C657.664 371.859 652.866 373.273 646.215 373.869C644.626 374.016 643.036 374.163 641.399 374.314C639.661 374.464 637.923 374.614 636.133 374.769C634.298 374.935 632.463 375.101 630.572 375.272C624.489 375.819 618.405 376.349 612.32 376.875C609.202 377.146 609.202 377.146 606.02 377.423C595.014 378.381 584.006 379.324 572.997 380.257C561.639 381.223 550.286 382.238 538.933 383.264C530.192 384.045 521.449 384.788 512.704 385.521C508.519 385.879 504.334 386.25 500.151 386.637C494.285 387.176 488.416 387.66 482.545 388.132C479.971 388.387 479.971 388.387 477.344 388.647C464.089 389.624 453.009 387.096 442.625 377.409C441.117 375.352 441.117 375.352 439.578 373.253C438.016 371.184 438.016 371.184 436.422 369.072C431.325 361.652 430.798 356.183 429.927 346.964C429.662 344.386 429.398 341.808 429.126 339.152C429.138 323.801 436.551 313.262 444.265 301.252C446.306 298.022 448.345 294.791 450.381 291.558C451.398 289.95 452.414 288.342 453.461 286.685C457.69 279.927 461.781 273.074 465.856 266.203C473.559 253.255 481.466 240.47 489.427 227.712C497.053 215.467 504.496 203.101 511.865 190.667C518.509 179.551 525.435 168.642 532.313 157.7C529.867 157.883 527.422 158.065 524.903 158.253C515.764 158.925 506.623 159.542 497.479 160.143C493.535 160.41 489.591 160.691 485.649 160.988C479.957 161.413 474.263 161.785 468.566 162.147C466.826 162.289 465.085 162.431 463.292 162.577C449.853 163.352 437.118 161.472 426.226 151.951C414.018 139.388 411.35 129.107 410.104 110.947C410.325 97.2964 415.547 88.7095 423.753 78.9962C434.522 69.3126 444.934 67.7496 458.456 66.6444Z" fill="url(#paint2_linear_2404_66)"/>
</g>
<defs>
<linearGradient id="paint0_linear_2404_66" x1="337.487" y1="488.184" x2="379.35" y2="993.066" gradientUnits="userSpaceOnUse">
<stop stop-color="#FFB75C"/>
<stop offset="1" stop-color="#694C27"/>
</linearGradient>
<linearGradient id="paint1_linear_2404_66" x1="856.794" y1="445.33" x2="883.442" y2="766.705" gradientUnits="userSpaceOnUse">
<stop stop-color="#FFB75C"/>
<stop offset="1" stop-color="#694C27"/>
</linearGradient>
<linearGradient id="paint2_linear_2404_66" x1="532.105" y1="60.0455" x2="558.792" y2="381.893" gradientUnits="userSpaceOnUse">
<stop stop-color="#FFB75C"/>
<stop offset="1" stop-color="#694C27"/>
</linearGradient>
<clipPath id="clip0_2404_66">
<rect width="1000" height="1094.84" fill="white" transform="translate(0 82.6343) rotate(-4.74)"/>
</clipPath>
</defs>
</svg>
