<svg width="1000" height="933" viewBox="0 0 1000 933" fill="none" xmlns="http://www.w3.org/2000/svg">
<path d="M252.781 2.24502C184.727 13.7513 130.167 43.2236 82.256 94.2953C42.3626 136.889 16.5492 186.749 4.6203 244.079C-1.44193 273.753 -1.63749 328.66 4.6203 357.729C12.247 393.863 27.1092 433.226 42.7537 458.863L48.0337 467.543H156.176L264.123 467.341L284.656 432.015C296.39 411.627 307.536 394.67 310.665 392.45C319.27 385.99 331.59 385.384 340.781 390.835C347.43 394.67 354.665 405.167 390.256 462.699C413.136 499.842 432.301 530.121 433.083 530.121C433.67 530.121 460.07 473.599 491.75 404.36C523.234 335.322 551.199 275.57 553.545 271.533C565.865 251.75 591.874 253.768 604.194 275.368C607.128 280.617 630.79 325.632 656.799 375.695L704.123 466.534L827.715 467.14L951.11 467.543L958.933 453.413C1012.32 358.133 1013.69 249.529 962.844 157.277C919.43 78.7518 847.075 24.0464 761.226 4.86926C732.675 -1.38855 679.483 -1.38855 651.128 4.86926C601.652 15.9718 558.043 37.3695 515.999 71.0809C505.83 79.3574 498.79 83.5965 497.225 82.7891C496.052 81.7797 490.185 77.3387 484.514 72.494C445.403 39.59 397.101 15.77 348.212 4.86926C324.354 -0.379223 276.052 -1.59041 252.781 2.24502Z" fill="url(#paint0_linear_2262_157)"/>
<path d="M534.974 451.794C456.947 622.168 460.467 615.304 450.885 620.755C441.107 626.407 428.982 625.801 420.182 619.342C417.053 617.121 395.933 584.823 371.685 545.661C348.218 507.307 328.271 476.22 327.684 476.623C326.902 477.027 320.84 486.918 314.191 498.425C306.369 511.748 299.72 520.832 295.809 523.254C289.942 526.888 283.684 527.089 192.164 528.099L94.7775 529.108L290.138 729.358C462.422 905.788 486.476 929.608 492.929 931.021C510.529 934.452 500.751 943.536 709.018 729.156C815.009 620.351 902.032 530.521 902.227 529.512C902.618 528.704 853.143 528.099 792.129 528.099C668.343 528.099 672.058 528.502 663.063 514.17C660.52 510.133 641.16 473.797 620.04 433.222C599.116 392.849 581.125 358.936 580.147 357.927C579.365 357.119 559.027 399.309 534.974 451.794Z" fill="url(#paint1_linear_2262_157)"/>
<defs>
<linearGradient id="paint0_linear_2262_157" x1="489.737" y1="138.206" x2="496.814" y2="604.433" gradientUnits="userSpaceOnUse">
<stop stop-color="#FFB75C"/>
<stop offset="1" stop-color="#694C27"/>
</linearGradient>
<linearGradient id="paint1_linear_2262_157" x1="470.596" y1="212.524" x2="459.952" y2="941.024" gradientUnits="userSpaceOnUse">
<stop stop-color="#FFB75C"/>
<stop offset="1" stop-color="#694C27"/>
</linearGradient>
</defs>
</svg>
