<svg width="1006" height="1406" viewBox="0 0 1006 1406" fill="none" xmlns="http://www.w3.org/2000/svg">
<g filter="url(#filter0_d_2403_64)">
<path d="M502.847 1400C226.805 1400 2.84668 1171.97 2.84668 890.909C2.84668 649.091 341.909 164.129 436.701 33.1439C452.065 11.9318 476.284 0 502.326 0H503.368C529.409 0 553.628 11.9318 568.992 33.1439C663.784 164.129 1002.85 649.091 1002.85 890.909C1002.85 1171.97 778.888 1400 502.847 1400ZM294.513 869.697C294.513 834.432 266.649 806.061 232.013 806.061C197.378 806.061 169.513 834.432 169.513 869.697C169.513 1068.83 328.107 1230.3 523.68 1230.3C558.315 1230.3 586.18 1201.93 586.18 1166.67C586.18 1131.4 558.315 1103.03 523.68 1103.03C397.117 1103.03 294.513 998.561 294.513 869.697Z" fill="url(#paint0_linear_2403_64)"/>
</g>
<defs>
<filter id="filter0_d_2403_64" x="-0.000216722" y="0" width="1005.69" height="1405.69" filterUnits="userSpaceOnUse" color-interpolation-filters="sRGB">
<feFlood flood-opacity="0" result="BackgroundImageFix"/>
<feColorMatrix in="SourceAlpha" type="matrix" values="0 0 0 0 0 0 0 0 0 0 0 0 0 0 0 0 0 0 127 0" result="hardAlpha"/>
<feOffset dy="2.8469"/>
<feGaussianBlur stdDeviation="1.42345"/>
<feComposite in2="hardAlpha" operator="out"/>
<feColorMatrix type="matrix" values="0 0 0 0 0 0 0 0 0 0 0 0 0 0 0 0 0 0 0.25 0"/>
<feBlend mode="normal" in2="BackgroundImageFix" result="effect1_dropShadow_2403_64"/>
<feBlend mode="normal" in="SourceGraphic" in2="effect1_dropShadow_2403_64" result="shape"/>
</filter>
<linearGradient id="paint0_linear_2403_64" x1="502.847" y1="-57.5" x2="502.847" y2="1989.47" gradientUnits="userSpaceOnUse">
<stop stop-color="#FFB75C"/>
<stop offset="1" stop-color="#694C27"/>
</linearGradient>
</defs>
</svg>
