<svg width="890" height="1020" viewBox="0 0 890 1020" fill="none" xmlns="http://www.w3.org/2000/svg">
<path d="M231.733 119.836C123.184 185.199 34.529 239.527 34.3127 240.376C34.3127 242.711 223.3 356.672 224.814 355.187C227.408 352.428 430.234 1.84186 429.586 1.2052C429.153 0.992984 340.282 54.26 231.733 119.836Z" fill="url(#paint0_linear_3590_51)"/>
<path d="M460.287 1.20083C460.287 2.68636 663.329 352.848 665.492 355.182C667.221 356.88 855.992 242.918 855.992 240.372C855.992 239.523 768.202 185.831 660.951 121.105C436.934 -14.5034 460.287 -0.496928 460.287 1.20083Z" fill="url(#paint1_linear_3590_51)"/>
<path d="M352.628 204.515L261.378 361.982L353.277 362.618C403.875 362.83 486.476 362.83 537.074 362.618L628.973 361.982L537.723 204.515C487.341 117.717 445.824 46.8361 445.176 46.8361C444.527 46.8361 403.01 117.717 352.628 204.515Z" fill="url(#paint2_linear_3590_51)"/>
<path d="M14.6355 276.427C14.6355 280.247 10.9596 384.446 6.6349 507.746C2.31025 631.045 -0.717002 731.425 0.147928 730.576C1.01286 729.727 43.1782 659.907 93.9928 575.231C144.591 490.556 190.865 413.52 196.703 403.97L207.082 386.568L113.886 329.694C62.6391 298.498 19.3926 271.97 17.6628 271.121C15.5004 269.848 14.8517 271.121 14.6355 276.427Z" fill="url(#paint3_linear_3590_51)"/>
<path d="M779.654 328.024C727.542 359.857 684.728 386.384 684.512 387.021C684.079 388.082 883.662 721.69 888.852 728.694C891.014 731.665 889.933 683.491 883.878 506.925C879.337 382.776 875.445 278.789 875.229 275.818C874.364 270.513 870.688 272.635 779.654 328.024Z" fill="url(#paint4_linear_3590_51)"/>
<path d="M262.211 400.601C264.589 406.756 444.062 715.322 445.144 715.322C446.225 715.322 625.698 406.756 628.076 400.601C629.374 397.206 618.346 396.993 445.144 396.993C271.941 396.993 260.913 397.206 262.211 400.601Z" fill="url(#paint5_linear_3590_51)"/>
<path d="M137.655 574.816L45.5402 733.344L138.52 733.98C189.551 734.193 272.584 734.193 323.183 733.98L414.865 733.344L323.831 576.302C273.665 489.928 232.149 418.623 231.284 417.774C230.419 416.925 188.254 487.594 137.655 574.816Z" fill="url(#paint6_linear_3590_51)"/>
<path d="M595.457 526.642C559.995 587.762 518.478 659.279 503.126 685.595L475.448 733.344L568.644 733.98C619.891 734.193 702.924 734.193 753.307 733.98L844.773 733.344L754.172 577.363C704.222 491.626 662.489 420.108 661.624 418.411C660.327 416.501 639.352 451.092 595.457 526.642Z" fill="url(#paint7_linear_3590_51)"/>
<path d="M24.5607 770.715C23.6957 771.989 23.4795 773.262 23.6957 773.686C24.1282 773.899 115.378 818.889 226.306 873.217L427.834 972.111V870.246V768.381H226.954C86.8356 768.381 25.4256 769.018 24.5607 770.715Z" fill="url(#paint8_linear_3590_51)"/>
<path d="M462.467 870.445V972.311L506.363 950.028C530.364 937.931 620.101 892.516 705.729 849.011C791.357 805.718 861.849 769.853 862.281 769.217C862.714 768.792 772.977 768.368 662.915 768.368H462.467V870.445Z" fill="url(#paint9_linear_3590_51)"/>
<g filter="url(#filter0_d_3590_51)">
<mask id="path-11-outside-1_3590_51" maskUnits="userSpaceOnUse" x="252" y="151.999" width="366" height="669" fill="black">
<rect fill="white" x="252" y="151.999" width="366" height="669"/>
<path d="M546.045 735.335C553.78 735.335 557.647 738.499 557.647 744.827C557.647 748.577 555.42 752.21 550.967 755.726C546.748 759.241 539.952 760.999 530.577 760.999C516.983 760.999 505.733 760.53 496.827 759.593C488.155 758.421 481.944 757.718 478.194 757.483C474.444 757.015 470.577 756.663 466.592 756.429C458.155 755.96 450.538 755.726 443.741 755.726C425.459 755.726 412.92 756.312 406.123 757.483C399.561 758.421 394.405 759.124 390.655 759.593C386.905 759.827 382.92 760.062 378.702 760.296C351.748 761.702 335.108 760.413 328.78 756.429C322.452 752.444 319.288 748.812 319.288 745.53C319.288 738.03 323.155 734.28 330.889 734.28L363.936 737.796C377.295 737.796 386.436 733.577 391.358 725.14C398.623 712.249 402.608 698.655 403.311 684.358C404.248 670.062 404.717 657.991 404.717 648.147V389.046C404.717 359.28 402.256 337.483 397.334 323.655C392.413 309.827 383.506 302.913 370.616 302.913L322.452 307.835C315.889 307.835 312.608 304.905 312.608 299.046C312.608 294.827 316.006 291.077 322.803 287.796C329.834 284.515 337.452 281.468 345.655 278.655C353.858 275.608 363.116 272.093 373.428 268.108C383.741 263.89 393.819 259.437 403.663 254.749C425.694 244.671 441.631 235.999 451.475 228.733C466.709 217.718 476.436 212.21 480.655 212.21C485.108 212.21 487.334 215.491 487.334 222.054C487.334 228.382 486.983 234.476 486.28 240.335C485.577 245.96 484.991 252.757 484.522 260.726C483.35 280.647 482.764 302.327 482.764 325.765V648.147C482.764 677.21 484.405 696.312 487.686 705.452C490.967 714.358 493.78 720.921 496.123 725.14C501.045 733.577 510.186 737.796 523.545 737.796L546.045 735.335Z"/>
</mask>
<path d="M546.045 735.335C553.78 735.335 557.647 738.499 557.647 744.827C557.647 748.577 555.42 752.21 550.967 755.726C546.748 759.241 539.952 760.999 530.577 760.999C516.983 760.999 505.733 760.53 496.827 759.593C488.155 758.421 481.944 757.718 478.194 757.483C474.444 757.015 470.577 756.663 466.592 756.429C458.155 755.96 450.538 755.726 443.741 755.726C425.459 755.726 412.92 756.312 406.123 757.483C399.561 758.421 394.405 759.124 390.655 759.593C386.905 759.827 382.92 760.062 378.702 760.296C351.748 761.702 335.108 760.413 328.78 756.429C322.452 752.444 319.288 748.812 319.288 745.53C319.288 738.03 323.155 734.28 330.889 734.28L363.936 737.796C377.295 737.796 386.436 733.577 391.358 725.14C398.623 712.249 402.608 698.655 403.311 684.358C404.248 670.062 404.717 657.991 404.717 648.147V389.046C404.717 359.28 402.256 337.483 397.334 323.655C392.413 309.827 383.506 302.913 370.616 302.913L322.452 307.835C315.889 307.835 312.608 304.905 312.608 299.046C312.608 294.827 316.006 291.077 322.803 287.796C329.834 284.515 337.452 281.468 345.655 278.655C353.858 275.608 363.116 272.093 373.428 268.108C383.741 263.89 393.819 259.437 403.663 254.749C425.694 244.671 441.631 235.999 451.475 228.733C466.709 217.718 476.436 212.21 480.655 212.21C485.108 212.21 487.334 215.491 487.334 222.054C487.334 228.382 486.983 234.476 486.28 240.335C485.577 245.96 484.991 252.757 484.522 260.726C483.35 280.647 482.764 302.327 482.764 325.765V648.147C482.764 677.21 484.405 696.312 487.686 705.452C490.967 714.358 493.78 720.921 496.123 725.14C501.045 733.577 510.186 737.796 523.545 737.796L546.045 735.335Z" fill="#FF002F" shape-rendering="crispEdges"/>
<path d="M546.045 735.335V675.335H542.774L539.522 675.691L546.045 735.335ZM550.967 755.726L513.789 708.633L513.166 709.124L512.556 709.632L550.967 755.726ZM496.827 759.593L488.792 819.052L489.667 819.171L490.546 819.263L496.827 759.593ZM478.194 757.483L470.752 817.02L472.596 817.251L474.451 817.367L478.194 757.483ZM466.592 756.429L470.116 696.532L470.018 696.526L469.92 696.521L466.592 756.429ZM406.123 757.483L414.609 816.88L415.465 816.758L416.318 816.611L406.123 757.483ZM390.655 759.593L394.397 819.476L396.252 819.36L398.097 819.129L390.655 759.593ZM378.702 760.296L381.828 820.214L381.929 820.209L382.03 820.203L378.702 760.296ZM330.889 734.28L337.236 674.617L334.072 674.28H330.889V734.28ZM363.936 737.796L357.589 797.459L360.753 797.796H363.936V737.796ZM391.358 725.14L443.185 755.372L443.409 754.988L443.627 754.6L391.358 725.14ZM403.311 684.358L343.44 680.432L343.407 680.922L343.383 681.411L403.311 684.358ZM370.616 302.913V242.913H367.558L364.516 243.224L370.616 302.913ZM322.452 307.835V367.835H325.509L328.551 367.524L322.452 307.835ZM322.803 287.796L297.43 233.425L297.073 233.591L296.718 233.763L322.803 287.796ZM345.655 278.655L365.114 335.412L365.833 335.165L366.546 334.901L345.655 278.655ZM373.428 268.108L395.052 324.076L395.601 323.864L396.146 323.641L373.428 268.108ZM403.663 254.749L378.703 200.187L378.283 200.379L377.867 200.577L403.663 254.749ZM451.475 228.733L416.318 180.112L416.08 180.284L415.844 180.459L451.475 228.733ZM486.28 240.335L545.816 247.777L545.835 247.63L545.852 247.484L486.28 240.335ZM487.686 705.452L431.214 725.724L431.299 725.96L431.385 726.194L487.686 705.452ZM496.123 725.14L443.674 754.278L443.98 754.828L444.297 755.372L496.123 725.14ZM523.545 737.796V797.796H526.817L530.069 797.44L523.545 737.796ZM546.045 735.335V795.335C543.261 795.335 530.03 795.009 516.752 784.145C501.17 771.396 497.647 754.445 497.647 744.827H557.647H617.647C617.647 728.881 612.19 707.184 592.741 691.271C575.596 677.243 556.564 675.335 546.045 675.335V735.335ZM557.647 744.827H497.647C497.647 722.354 511.397 710.521 513.789 708.633L550.967 755.726L588.146 802.819C599.444 793.899 617.647 774.8 617.647 744.827H557.647ZM550.967 755.726L512.556 709.632C518.882 704.361 524.804 702.336 527.683 701.592C530.515 700.859 531.775 700.999 530.577 700.999V760.999V820.999C544.933 820.999 569.025 818.78 589.378 801.819L550.967 755.726ZM530.577 760.999V700.999C518.127 700.999 509.156 700.559 503.108 699.922L496.827 759.593L490.546 819.263C502.31 820.501 515.839 820.999 530.577 820.999V760.999ZM496.827 759.593L504.862 700.133C496.131 698.953 488.04 697.982 481.936 697.6L478.194 757.483L474.451 817.367C475.848 817.454 480.179 817.888 488.792 819.052L496.827 759.593ZM478.194 757.483L485.636 697.947C480.514 697.306 475.337 696.839 470.116 696.532L466.592 756.429L463.069 816.325C465.816 816.487 468.374 816.723 470.752 817.02L478.194 757.483ZM466.592 756.429L469.92 696.521C460.628 696.005 451.875 695.726 443.741 695.726V755.726V815.726C449.2 815.726 455.681 815.915 463.264 816.336L466.592 756.429ZM443.741 755.726V695.726C425.849 695.726 408.461 696.195 395.929 698.356L406.123 757.483L416.318 816.611C416.052 816.657 417.98 816.354 423.426 816.1C428.448 815.865 435.155 815.726 443.741 815.726V755.726ZM406.123 757.483L397.638 698.086C391.207 699.005 386.45 699.651 383.213 700.056L390.655 759.593L398.097 819.129C402.359 818.597 407.915 817.837 414.609 816.88L406.123 757.483ZM390.655 759.593L386.912 699.71C383.316 699.934 379.471 700.161 375.373 700.388L378.702 760.296L382.03 820.203C386.37 819.962 390.494 819.72 394.397 819.476L390.655 759.593ZM378.702 760.296L375.575 700.377C363.318 701.017 355.301 700.924 350.64 700.563C348.327 700.384 347.948 700.218 348.886 700.433C349.414 700.554 350.716 700.878 352.541 701.556C354.31 702.214 357.261 703.459 360.749 705.655L328.78 756.429L296.811 807.203C313.514 817.72 332.513 819.518 341.372 820.205C353.352 821.133 367.133 820.981 381.828 820.214L378.702 760.296ZM328.78 756.429L360.749 705.655C360.127 705.263 363.133 706.977 366.905 711.309C370.486 715.42 379.288 727.206 379.288 745.53H319.288H259.288C259.288 767.136 269.671 782.379 276.416 790.123C283.353 798.087 291.105 803.61 296.811 807.203L328.78 756.429ZM319.288 745.53H379.288C379.288 751.506 377.641 766.897 363.957 780.167C350.615 793.104 335.816 794.28 330.889 794.28V734.28V674.28C318.228 674.28 297.628 677.331 280.419 694.019C262.867 711.039 259.288 732.055 259.288 745.53H319.288ZM330.889 734.28L324.542 793.944L357.589 797.459L363.936 737.796L370.283 678.133L337.236 674.617L330.889 734.28ZM363.936 737.796V797.796C389.805 797.796 423.7 788.773 443.185 755.372L391.358 725.14L339.531 694.907C343.468 688.159 349.433 683.032 355.667 680.154C361.113 677.641 364.638 677.796 363.936 677.796V737.796ZM391.358 725.14L443.627 754.6C455.311 733.87 462.062 711.235 463.239 687.306L403.311 684.358L343.383 681.411C343.154 686.076 341.936 690.628 339.089 695.679L391.358 725.14ZM403.311 684.358L463.182 688.284C464.171 673.211 464.717 659.742 464.717 648.147H404.717H344.717C344.717 656.24 344.326 666.912 343.44 680.432L403.311 684.358ZM404.717 648.147H464.717V389.046H404.717H344.717V648.147H404.717ZM404.717 389.046H464.717C464.717 357.981 462.404 327.539 453.861 303.536L397.334 323.655L340.808 343.775C342.108 347.428 344.717 360.58 344.717 389.046H404.717ZM397.334 323.655L453.861 303.536C448.7 289.037 439.611 273.012 423.757 260.704C407.3 247.929 388.384 242.913 370.616 242.913V302.913V362.913C365.738 362.913 357.72 361.355 350.17 355.493C343.221 350.099 341.047 344.445 340.808 343.775L397.334 323.655ZM370.616 302.913L364.516 243.224L316.352 248.146L322.452 307.835L328.551 367.524L376.715 362.602L370.616 302.913ZM322.452 307.835V247.835C326.848 247.835 341.352 248.669 355.03 260.881C370.002 274.25 372.608 290.857 372.608 299.046H312.608H252.608C252.608 313.095 256.854 334.096 275.108 350.394C292.067 365.536 311.492 367.835 322.452 367.835V307.835ZM312.608 299.046H372.608C372.608 314.694 365.813 326.523 359.616 333.361C354.237 339.295 349.346 341.608 348.888 341.829L322.803 287.796L296.718 233.763C286.143 238.868 252.608 257.604 252.608 299.046H312.608ZM322.803 287.796L348.176 342.167C353.071 339.883 358.693 337.614 365.114 335.412L345.655 278.655L326.195 221.898C316.21 225.322 306.597 229.147 297.43 233.425L322.803 287.796ZM345.655 278.655L366.546 334.901C375.048 331.743 384.556 328.132 395.052 324.076L373.428 268.108L351.804 212.141C341.675 216.054 332.668 219.474 324.764 222.41L345.655 278.655ZM373.428 268.108L396.146 323.641C407.475 319.007 418.58 314.101 429.459 308.921L403.663 254.749L377.867 200.577C369.058 204.772 360.007 208.772 350.71 212.576L373.428 268.108ZM403.663 254.749L428.622 309.311C451.513 298.84 472.087 288.093 487.106 277.008L451.475 228.733L415.844 180.459C411.175 183.905 399.875 190.502 378.703 200.187L403.663 254.749ZM451.475 228.733L486.632 277.354C489.932 274.968 492.704 273.047 494.987 271.536C497.309 269.999 498.864 269.059 499.761 268.551C500.19 268.308 500.322 268.247 500.191 268.312C500.083 268.366 499.494 268.655 498.499 269.048C497.562 269.418 495.715 270.099 493.151 270.73C490.74 271.324 486.353 272.21 480.655 272.21V212.21V152.21C468.33 152.21 458.587 155.791 454.417 157.438C449.163 159.513 444.432 161.978 440.631 164.13C432.981 168.463 424.7 174.052 416.318 180.112L451.475 228.733ZM480.655 212.21V272.21C474.381 272.21 465.985 271.032 457.123 266.678C447.991 262.193 440.912 255.576 436.016 248.361C427.27 235.472 427.334 223.681 427.334 222.054H487.334H547.334C547.334 213.864 546.286 197.151 535.313 180.981C521.518 160.652 499.909 152.21 480.655 152.21V212.21ZM487.334 222.054H427.334C427.334 226.163 427.106 229.862 426.707 233.186L486.28 240.335L545.852 247.484C546.86 239.089 547.334 230.601 547.334 222.054H487.334ZM486.28 240.335L426.743 232.893C425.827 240.224 425.143 248.406 424.625 257.202L484.522 260.726L544.418 264.249C544.838 257.108 545.327 251.696 545.816 247.777L486.28 240.335ZM484.522 260.726L424.625 257.202C423.374 278.478 422.764 301.348 422.764 325.765H482.764H542.764C542.764 303.306 543.326 282.817 544.418 264.249L484.522 260.726ZM482.764 325.765H422.764V648.147H482.764H542.764V325.765H482.764ZM482.764 648.147H422.764C422.764 663.617 423.194 677.517 424.215 689.405C425.137 700.138 426.85 713.566 431.214 725.724L487.686 705.452L544.158 685.18C544.908 687.269 544.916 688.003 544.642 686.428C544.405 685.069 544.082 682.717 543.774 679.136C543.155 671.922 542.764 661.741 542.764 648.147H482.764ZM487.686 705.452L431.385 726.194C434.921 735.792 439.012 745.887 443.674 754.278L496.123 725.14L548.573 696.001C548.741 696.305 548.348 695.619 547.405 693.419C546.515 691.342 545.377 688.484 543.987 684.71L487.686 705.452ZM496.123 725.14L444.297 755.372C463.781 788.773 497.677 797.796 523.545 797.796V737.796V677.796C522.843 677.796 526.368 677.641 531.814 680.154C538.049 683.032 544.013 688.159 547.95 694.907L496.123 725.14ZM523.545 737.796L530.069 797.44L552.569 794.979L546.045 735.335L539.522 675.691L517.022 678.152L523.545 737.796Z" fill="#4C0000" fill-opacity="0.8" mask="url(#path-11-outside-1_3590_51)"/>
</g>
<defs>
<filter id="filter0_d_3590_51" x="248.608" y="152.21" width="373.039" height="676.789" filterUnits="userSpaceOnUse" color-interpolation-filters="sRGB">
<feFlood flood-opacity="0" result="BackgroundImageFix"/>
<feColorMatrix in="SourceAlpha" type="matrix" values="0 0 0 0 0 0 0 0 0 0 0 0 0 0 0 0 0 0 127 0" result="hardAlpha"/>
<feOffset dy="4"/>
<feGaussianBlur stdDeviation="2"/>
<feComposite in2="hardAlpha" operator="out"/>
<feColorMatrix type="matrix" values="0 0 0 0 0 0 0 0 0 0 0 0 0 0 0 0 0 0 0.25 0"/>
<feBlend mode="normal" in2="BackgroundImageFix" result="effect1_dropShadow_3590_51"/>
<feBlend mode="normal" in="SourceGraphic" in2="effect1_dropShadow_3590_51" result="shape"/>
</filter>
<linearGradient id="paint0_linear_3590_51" x1="231.95" y1="1.20459" x2="231.95" y2="355.201" gradientUnits="userSpaceOnUse">
<stop offset="0.278846" stop-color="#FFB75C"/>
<stop offset="1" stop-color="#694C27"/>
</linearGradient>
<linearGradient id="paint1_linear_3590_51" x1="657.792" y1="-0.000274658" x2="657.792" y2="355.201" gradientUnits="userSpaceOnUse">
<stop offset="0.278846" stop-color="#FFB75C"/>
<stop offset="1" stop-color="#694C27"/>
</linearGradient>
<linearGradient id="paint2_linear_3590_51" x1="445.176" y1="46.8361" x2="445.176" y2="362.777" gradientUnits="userSpaceOnUse">
<stop offset="0.278846" stop-color="#FFB75C"/>
<stop offset="1" stop-color="#694C27"/>
</linearGradient>
<linearGradient id="paint3_linear_3590_51" x1="103.541" y1="270.665" x2="103.541" y2="730.581" gradientUnits="userSpaceOnUse">
<stop stop-color="#FFB75C"/>
<stop offset="1" stop-color="#694C27"/>
</linearGradient>
<linearGradient id="paint4_linear_3590_51" x1="787.193" y1="273.882" x2="787.193" y2="728.821" gradientUnits="userSpaceOnUse">
<stop stop-color="#FFB75C"/>
<stop offset="1" stop-color="#694C27"/>
</linearGradient>
<linearGradient id="paint5_linear_3590_51" x1="445.144" y1="396.993" x2="445.144" y2="715.322" gradientUnits="userSpaceOnUse">
<stop stop-color="#FFB75C"/>
<stop offset="1" stop-color="#694C27"/>
</linearGradient>
<linearGradient id="paint6_linear_3590_51" x1="230.203" y1="417.766" x2="230.203" y2="734.14" gradientUnits="userSpaceOnUse">
<stop stop-color="#FFB75C"/>
<stop offset="1" stop-color="#694C27"/>
</linearGradient>
<linearGradient id="paint7_linear_3590_51" x1="660.11" y1="418.336" x2="660.11" y2="734.14" gradientUnits="userSpaceOnUse">
<stop stop-color="#FFB75C"/>
<stop offset="1" stop-color="#694C27"/>
</linearGradient>
<linearGradient id="paint8_linear_3590_51" x1="253.106" y1="425.856" x2="226.731" y2="972.16" gradientUnits="userSpaceOnUse">
<stop stop-color="#FFB75C"/>
<stop offset="1" stop-color="#694C27"/>
</linearGradient>
<linearGradient id="paint9_linear_3590_51" x1="650.871" y1="532.302" x2="650.871" y2="958.154" gradientUnits="userSpaceOnUse">
<stop stop-color="#FFB75C"/>
<stop offset="1" stop-color="#694C27"/>
</linearGradient>
</defs>
</svg>
