<svg width="1000" height="538" viewBox="0 0 1000 538" fill="none" xmlns="http://www.w3.org/2000/svg">
<path d="M0 269C0 120.377 111.875 0 250 0C328.75 0 402.812 39.8456 450 107.6L500 179.389L550 107.6C597.188 39.8456 671.25 0 750 0C888.125 0 1000 120.377 1000 269C1000 417.622 888.125 538 750 538C671.25 538 597.188 498.154 550 430.4L500 358.611L450 430.4C402.812 498.154 328.75 538 250 538C111.875 538 0 417.622 0 269ZM437.5 269L370 172.16C341.719 131.474 297.188 107.6 250 107.6C167.188 107.6 100 179.894 100 269C100 358.106 167.188 430.4 250 430.4C297.188 430.4 341.719 406.526 370 365.84L437.5 269ZM562.5 269L630 365.84C658.281 406.526 702.812 430.4 750 430.4C832.812 430.4 900 358.106 900 269C900 179.894 832.812 107.6 750 107.6C702.812 107.6 658.281 131.474 630 172.16L562.5 269Z" fill="#FFB75C"/>
</svg>
