<svg width="1000" height="1083" viewBox="0 0 1000 1083" fill="none" xmlns="http://www.w3.org/2000/svg">
<path d="M558.831 24.4036C526.292 -8.13454 473.448 -8.13454 440.908 24.4036L24.4045 440.892C-8.13484 473.43 -8.13484 526.272 24.4045 558.81C56.9439 591.348 109.788 591.348 142.327 558.81L500 201.151L857.673 558.55C890.212 591.088 943.056 591.088 975.595 558.55C1008.13 526.012 1008.13 473.17 975.595 440.632L559.091 24.1433L558.831 24.4036ZM975.335 940.678L558.831 524.19C526.292 491.652 473.448 491.652 440.908 524.19L24.4045 940.678C-8.13484 973.216 -8.13484 1026.06 24.4045 1058.6C56.9439 1091.13 109.788 1091.13 142.327 1058.6L500 700.937L857.673 1058.34C890.212 1090.87 943.056 1090.87 975.595 1058.34C1008.13 1025.8 1008.13 972.956 975.595 940.418L975.335 940.678Z" fill="#09D95C"/>
</svg>
