<svg width="890" height="973" viewBox="0 0 890 973" fill="none" xmlns="http://www.w3.org/2000/svg">
<path d="M231.733 119.836C123.184 185.199 34.529 239.527 34.3127 240.376C34.3127 242.711 223.3 356.672 224.814 355.187C227.408 352.428 430.234 1.84186 429.586 1.2052C429.153 0.992984 340.282 54.26 231.733 119.836Z" fill="url(#paint0_linear_3590_52)"/>
<path d="M460.287 1.20083C460.287 2.68636 663.329 352.848 665.492 355.182C667.221 356.88 855.992 242.918 855.992 240.372C855.992 239.523 768.202 185.831 660.951 121.105C436.934 -14.5034 460.287 -0.496928 460.287 1.20083Z" fill="url(#paint1_linear_3590_52)"/>
<path d="M352.628 204.515L261.378 361.982L353.277 362.618C403.875 362.83 486.476 362.83 537.074 362.618L628.973 361.982L537.723 204.515C487.341 117.717 445.824 46.8361 445.176 46.8361C444.527 46.8361 403.01 117.717 352.628 204.515Z" fill="url(#paint2_linear_3590_52)"/>
<path d="M14.6355 276.425C14.6355 280.245 10.9596 384.444 6.6349 507.744C2.31025 631.043 -0.717002 731.423 0.147928 730.574C1.01286 729.725 43.1782 659.905 93.9928 575.229C144.591 490.554 190.865 413.518 196.703 403.968L207.082 386.567L113.886 329.692C62.6391 298.496 19.3926 271.968 17.6628 271.119C15.5004 269.846 14.8517 271.119 14.6355 276.425Z" fill="url(#paint3_linear_3590_52)"/>
<path d="M779.654 328.022C727.542 359.855 684.728 386.382 684.512 387.019C684.079 388.08 883.662 721.688 888.852 728.692C891.014 731.663 889.933 683.489 883.878 506.923C879.337 382.774 875.445 278.787 875.229 275.816C874.364 270.511 870.688 272.633 779.654 328.022Z" fill="url(#paint4_linear_3590_52)"/>
<path d="M262.211 400.599C264.589 406.754 444.062 715.32 445.144 715.32C446.225 715.32 625.698 406.754 628.076 400.599C629.374 397.204 618.346 396.992 445.144 396.992C271.941 396.992 260.913 397.204 262.211 400.599Z" fill="url(#paint5_linear_3590_52)"/>
<path d="M137.655 574.814L45.5402 733.342L138.52 733.979C189.551 734.191 272.584 734.191 323.183 733.979L414.865 733.342L323.831 576.3C273.665 489.927 232.149 418.621 231.284 417.772C230.419 416.923 188.254 487.592 137.655 574.814Z" fill="url(#paint6_linear_3590_52)"/>
<path d="M595.457 526.64C559.995 587.76 518.478 659.277 503.126 685.593L475.448 733.342L568.644 733.979C619.891 734.191 702.924 734.191 753.307 733.979L844.773 733.342L754.172 577.361C704.222 491.624 662.489 420.106 661.624 418.409C660.327 416.499 639.352 451.09 595.457 526.64Z" fill="url(#paint7_linear_3590_52)"/>
<path d="M24.5607 770.713C23.6957 771.987 23.4795 773.26 23.6957 773.685C24.1282 773.897 115.378 818.887 226.306 873.215L427.834 972.109V870.244V768.379H226.954C86.8356 768.379 25.4256 769.016 24.5607 770.713Z" fill="url(#paint8_linear_3590_52)"/>
<path d="M462.467 870.443V972.309L506.363 950.026C530.364 937.929 620.101 892.514 705.729 849.009C791.357 805.717 861.849 769.851 862.281 769.215C862.714 768.79 772.977 768.366 662.915 768.366H462.467V870.443Z" fill="url(#paint9_linear_3590_52)"/>
<g filter="url(#filter0_d_3590_52)">
<mask id="path-11-outside-1_3590_52" maskUnits="userSpaceOnUse" x="54" y="217" width="777" height="565" fill="black">
<rect fill="white" x="54" y="217" width="777" height="565"/>
<path d="M206.846 644.32H408.346V715H129.966C128.726 708.387 127.693 701.773 126.866 695.16C126.04 688.34 125.626 680.487 125.626 671.6C125.626 645.353 129.863 622.93 138.336 604.33C147.016 585.73 159.623 569.093 176.156 554.42C192.896 539.747 213.46 525.28 237.846 511.02C251.28 503.167 264.713 494.487 278.146 484.98C291.58 475.473 302.74 464.21 311.626 451.19C320.72 437.963 325.266 421.947 325.266 403.14C325.266 387.02 320.203 372.657 310.076 360.05C300.156 347.443 284.14 341.14 262.026 341.14C239.086 341.14 220.693 348.58 206.846 363.46C193.206 378.34 184.526 397.56 180.806 421.12L115.086 390.12C118.393 368.627 126.763 348.993 140.196 331.22C153.63 313.24 171.196 298.98 192.896 288.44C214.596 277.693 239.5 272.32 267.606 272.32C293.233 272.32 316.483 277.177 337.356 286.89C358.23 296.397 374.866 310.347 387.266 328.74C399.666 347.133 405.866 369.453 405.866 395.7C405.866 422.567 401.01 445.817 391.296 465.45C381.583 485.083 367.22 502.96 348.206 519.08C329.4 535.2 306.253 551.527 278.766 568.06C259.34 579.84 243.323 590.897 230.716 601.23C218.316 611.357 210.36 625.72 206.846 644.32ZM618.245 726.16C580.632 726.16 550.252 716.55 527.105 697.33C503.959 677.903 487.115 651.243 476.575 617.35C466.035 583.25 460.765 544.087 460.765 499.86C460.765 422.567 474.509 365.32 501.995 328.12C529.689 290.92 568.439 272.32 618.245 272.32C668.259 272.32 707.009 290.92 734.495 328.12C761.982 365.32 775.725 422.567 775.725 499.86C775.725 544.087 770.455 583.25 759.915 617.35C749.375 651.243 732.532 677.903 709.385 697.33C686.239 716.55 655.859 726.16 618.245 726.16ZM618.865 659.82C636.639 659.82 650.589 652.793 660.715 638.74C671.049 624.48 678.282 605.26 682.415 581.08C686.755 556.693 688.925 529.413 688.925 499.24C688.925 467.413 686.652 439.41 682.105 415.23C677.765 390.843 670.429 371.83 660.095 358.19C649.969 344.343 636.225 337.42 618.865 337.42C601.299 337.42 587.245 344.343 576.705 358.19C566.372 371.83 558.932 390.843 554.385 415.23C549.839 439.41 547.565 467.413 547.565 499.24C547.565 529.413 549.735 556.693 554.075 581.08C558.622 605.26 566.062 624.48 576.395 638.74C586.935 652.793 601.092 659.82 618.865 659.82Z"/>
</mask>
<path d="M206.846 644.32H408.346V715H129.966C128.726 708.387 127.693 701.773 126.866 695.16C126.04 688.34 125.626 680.487 125.626 671.6C125.626 645.353 129.863 622.93 138.336 604.33C147.016 585.73 159.623 569.093 176.156 554.42C192.896 539.747 213.46 525.28 237.846 511.02C251.28 503.167 264.713 494.487 278.146 484.98C291.58 475.473 302.74 464.21 311.626 451.19C320.72 437.963 325.266 421.947 325.266 403.14C325.266 387.02 320.203 372.657 310.076 360.05C300.156 347.443 284.14 341.14 262.026 341.14C239.086 341.14 220.693 348.58 206.846 363.46C193.206 378.34 184.526 397.56 180.806 421.12L115.086 390.12C118.393 368.627 126.763 348.993 140.196 331.22C153.63 313.24 171.196 298.98 192.896 288.44C214.596 277.693 239.5 272.32 267.606 272.32C293.233 272.32 316.483 277.177 337.356 286.89C358.23 296.397 374.866 310.347 387.266 328.74C399.666 347.133 405.866 369.453 405.866 395.7C405.866 422.567 401.01 445.817 391.296 465.45C381.583 485.083 367.22 502.96 348.206 519.08C329.4 535.2 306.253 551.527 278.766 568.06C259.34 579.84 243.323 590.897 230.716 601.23C218.316 611.357 210.36 625.72 206.846 644.32ZM618.245 726.16C580.632 726.16 550.252 716.55 527.105 697.33C503.959 677.903 487.115 651.243 476.575 617.35C466.035 583.25 460.765 544.087 460.765 499.86C460.765 422.567 474.509 365.32 501.995 328.12C529.689 290.92 568.439 272.32 618.245 272.32C668.259 272.32 707.009 290.92 734.495 328.12C761.982 365.32 775.725 422.567 775.725 499.86C775.725 544.087 770.455 583.25 759.915 617.35C749.375 651.243 732.532 677.903 709.385 697.33C686.239 716.55 655.859 726.16 618.245 726.16ZM618.865 659.82C636.639 659.82 650.589 652.793 660.715 638.74C671.049 624.48 678.282 605.26 682.415 581.08C686.755 556.693 688.925 529.413 688.925 499.24C688.925 467.413 686.652 439.41 682.105 415.23C677.765 390.843 670.429 371.83 660.095 358.19C649.969 344.343 636.225 337.42 618.865 337.42C601.299 337.42 587.245 344.343 576.705 358.19C566.372 371.83 558.932 390.843 554.385 415.23C549.839 439.41 547.565 467.413 547.565 499.24C547.565 529.413 549.735 556.693 554.075 581.08C558.622 605.26 566.062 624.48 576.395 638.74C586.935 652.793 601.092 659.82 618.865 659.82Z" fill="#00FF48" shape-rendering="crispEdges"/>
<path d="M206.846 644.32L152.802 634.112L140.485 699.32H206.846V644.32ZM408.346 644.32H463.346V589.32H408.346V644.32ZM408.346 715V770H463.346V715H408.346ZM129.966 715L75.9083 725.136L84.3203 770H129.966V715ZM126.866 695.16L72.2659 701.778L72.2782 701.88L72.291 701.982L126.866 695.16ZM138.336 604.33L88.4962 581.071L88.3896 581.3L88.2852 581.529L138.336 604.33ZM176.156 554.42L139.902 513.06L139.775 513.172L139.648 513.284L176.156 554.42ZM237.846 511.02L210.088 463.539L210.083 463.541L237.846 511.02ZM311.626 451.19L266.304 420.031L266.251 420.107L266.199 420.184L311.626 451.19ZM310.076 360.05L266.853 394.061L267.024 394.279L267.197 394.494L310.076 360.05ZM206.846 363.46L166.582 325.992L166.442 326.143L166.303 326.295L206.846 363.46ZM180.806 421.12L157.342 470.864L223.692 502.161L235.133 429.698L180.806 421.12ZM115.086 390.12L60.7258 381.757L54.4815 422.345L91.6222 439.864L115.086 390.12ZM140.196 331.22L184.073 364.383L184.166 364.261L184.257 364.139L140.196 331.22ZM192.896 288.44L216.926 337.913L217.116 337.821L217.305 337.727L192.896 288.44ZM337.356 286.89L314.152 336.755L314.355 336.85L314.56 336.943L337.356 286.89ZM391.296 465.45L341.999 441.061V441.061L391.296 465.45ZM348.206 519.08L312.639 477.128L312.525 477.224L312.413 477.321L348.206 519.08ZM278.766 568.06L250.417 520.929L250.333 520.98L250.249 521.031L278.766 568.06ZM230.716 601.23L265.506 643.829L265.544 643.798L265.582 643.767L230.716 601.23ZM206.846 644.32V699.32H408.346V644.32V589.32H206.846V644.32ZM408.346 644.32H353.346V715H408.346H463.346V644.32H408.346ZM408.346 715V660H129.966V715V770H408.346V715ZM129.966 715L184.024 704.864C182.988 699.339 182.128 693.831 181.442 688.338L126.866 695.16L72.291 701.982C73.2577 709.715 74.4642 717.434 75.9083 725.136L129.966 715ZM126.866 695.16L181.467 688.542C180.97 684.445 180.626 678.879 180.626 671.6H125.626H70.6263C70.6263 682.095 71.1091 692.235 72.2659 701.778L126.866 695.16ZM125.626 671.6H180.626C180.626 651.069 183.963 636.844 188.387 627.131L138.336 604.33L88.2852 581.529C75.7631 609.016 70.6263 639.638 70.6263 671.6H125.626ZM138.336 604.33L188.176 627.589C193.441 616.307 201.311 605.632 212.664 595.556L176.156 554.42L139.648 513.284C117.934 532.555 100.591 555.153 88.4962 581.071L138.336 604.33ZM176.156 554.42L212.41 595.78C225.93 583.929 243.477 571.44 265.609 558.499L237.846 511.02L210.083 463.541C183.442 479.12 159.862 495.564 139.902 513.06L176.156 554.42ZM237.846 511.02L265.605 558.501C280.489 549.8 295.259 540.249 309.918 529.875L278.146 484.98L246.374 440.085C234.167 448.724 222.071 456.533 210.088 463.539L237.846 511.02ZM278.146 484.98L309.918 529.875C328.455 516.756 344.317 500.857 357.053 482.196L311.626 451.19L266.199 420.184C261.162 427.563 254.704 434.19 246.374 440.085L278.146 484.98ZM311.626 451.19L356.949 482.349C373.371 458.462 380.266 431.113 380.266 403.14H325.266H270.266C270.266 412.78 268.068 417.465 266.304 420.031L311.626 451.19ZM325.266 403.14H380.266C380.266 374.451 370.9 347.945 352.955 325.606L310.076 360.05L267.197 394.494C269.506 397.368 270.266 399.589 270.266 403.14H325.266ZM310.076 360.05L353.299 326.039C329.376 295.636 294.223 286.14 262.026 286.14V341.14V396.14C264.97 396.14 267.084 396.352 268.498 396.585C269.9 396.817 270.491 397.05 270.482 397.047C270.443 397.031 269.896 396.806 269.091 396.219C268.268 395.619 267.487 394.867 266.853 394.061L310.076 360.05ZM262.026 341.14V286.14C225.98 286.14 192.224 298.438 166.582 325.992L206.846 363.46L247.11 400.928C249.162 398.722 252.193 396.14 262.026 396.14V341.14ZM206.846 363.46L166.303 326.295C144.115 350.5 131.573 380.282 126.479 412.542L180.806 421.12L235.133 429.698C237.48 414.838 242.297 406.18 247.39 400.625L206.846 363.46ZM180.806 421.12L204.27 371.376L138.55 340.376L115.086 390.12L91.6222 439.864L157.342 470.864L180.806 421.12ZM115.086 390.12L169.447 398.483C171.333 386.224 175.995 375.071 184.073 364.383L140.196 331.22L96.319 298.057C77.5307 322.915 65.4532 351.029 60.7258 381.757L115.086 390.12ZM140.196 331.22L184.257 364.139C192.042 353.718 202.523 344.909 216.926 337.913L192.896 288.44L168.867 238.967C139.869 253.051 115.217 272.762 96.1356 298.301L140.196 331.22ZM192.896 288.44L217.305 337.727C230.286 331.298 246.608 327.32 267.606 327.32V272.32V217.32C232.392 217.32 198.906 224.088 168.487 239.153L192.896 288.44ZM267.606 272.32V327.32C286.13 327.32 301.331 330.789 314.152 336.755L337.356 286.89L360.561 237.025C331.634 223.564 300.336 217.32 267.606 217.32V272.32ZM337.356 286.89L314.56 336.943C326.524 342.392 335.136 349.804 341.662 359.485L387.266 328.74L432.871 297.995C414.597 270.889 389.935 250.401 360.153 236.837L337.356 286.89ZM387.266 328.74L341.662 359.485C346.885 367.233 350.866 378.36 350.866 395.7H405.866H460.866C460.866 360.546 452.447 327.034 432.871 297.995L387.266 328.74ZM405.866 395.7H350.866C350.866 415.989 347.207 430.534 341.999 441.061L391.296 465.45L440.593 489.839C454.812 461.099 460.866 429.144 460.866 395.7H405.866ZM391.296 465.45L341.999 441.061C336.045 453.097 326.712 465.196 312.639 477.128L348.206 519.08L383.774 561.032C407.727 540.724 427.121 517.07 440.593 489.839L391.296 465.45ZM348.206 519.08L312.413 477.321C296.496 490.964 275.999 505.541 250.417 520.929L278.766 568.06L307.116 615.191C336.507 597.512 362.303 579.436 384 560.839L348.206 519.08ZM278.766 568.06L250.249 521.031C229.396 533.676 211.073 546.216 195.85 558.693L230.716 601.23L265.582 643.767C275.573 635.577 289.284 626.004 307.284 615.089L278.766 568.06ZM230.716 601.23L195.927 558.631C171.731 578.391 158.26 605.217 152.802 634.112L206.846 644.32L260.891 654.528C262.459 646.223 264.902 644.322 265.506 643.829L230.716 601.23ZM527.105 697.33L491.747 739.459L491.858 739.552L491.97 739.644L527.105 697.33ZM476.575 617.35L424.028 633.592L424.042 633.637L424.056 633.682L476.575 617.35ZM501.995 328.12L457.878 295.277L457.819 295.356L457.761 295.435L501.995 328.12ZM734.495 328.12L690.26 360.805H690.261L734.495 328.12ZM759.915 617.35L812.434 633.682L812.448 633.637L812.462 633.592L759.915 617.35ZM709.385 697.33L744.521 739.644L744.632 739.552L744.743 739.459L709.385 697.33ZM660.715 638.74L616.179 606.467L616.136 606.527L616.093 606.586L660.715 638.74ZM682.415 581.08L628.266 571.443L628.233 571.628L628.202 571.813L682.415 581.08ZM682.105 415.23L627.956 424.867L628.003 425.13L628.053 425.394L682.105 415.23ZM660.095 358.19L615.701 390.658L615.975 391.032L616.255 391.402L660.095 358.19ZM576.705 358.19L532.942 324.877L532.903 324.928L532.865 324.978L576.705 358.19ZM554.385 415.23L608.438 425.394L608.446 425.352L608.454 425.311L554.385 415.23ZM554.075 581.08L499.926 590.717L499.973 590.98L500.023 591.244L554.075 581.08ZM576.395 638.74L531.859 671.013L532.124 671.379L532.395 671.74L576.395 638.74ZM618.245 726.16V671.16C590.164 671.16 573.242 664.151 562.241 655.016L527.105 697.33L491.97 739.644C527.262 768.949 571.1 781.16 618.245 781.16V726.16ZM527.105 697.33L562.463 655.201C548.715 643.663 537.06 626.634 529.094 601.018L476.575 617.35L424.056 633.682C437.17 675.853 459.203 712.144 491.747 739.459L527.105 697.33ZM476.575 617.35L529.122 601.108C520.543 573.35 515.765 539.84 515.765 499.86H460.765H405.765C405.765 548.333 411.528 593.15 424.028 633.592L476.575 617.35ZM460.765 499.86H515.765C515.765 427.167 529.045 384.063 546.23 360.805L501.995 328.12L457.761 295.435C419.972 346.577 405.765 417.967 405.765 499.86H460.765ZM501.995 328.12L546.113 360.963C562.565 338.862 584.323 327.32 618.245 327.32V272.32V217.32C552.554 217.32 496.812 242.978 457.878 295.277L501.995 328.12ZM618.245 272.32V327.32C652.458 327.32 674.087 338.915 690.26 360.805L734.495 328.12L778.73 295.435C739.931 242.925 684.059 217.32 618.245 217.32V272.32ZM734.495 328.12L690.261 360.805C707.446 384.063 720.725 427.167 720.725 499.86H775.725H830.725C830.725 417.967 816.518 346.577 778.73 295.435L734.495 328.12ZM775.725 499.86H720.725C720.725 539.84 715.948 573.35 707.368 601.108L759.915 617.35L812.462 633.592C824.963 593.15 830.725 548.333 830.725 499.86H775.725ZM759.915 617.35L707.396 601.018C699.43 626.634 687.776 643.663 674.027 655.201L709.385 697.33L744.743 739.459C777.288 712.144 799.32 675.853 812.434 633.682L759.915 617.35ZM709.385 697.33L674.25 655.016C663.248 664.151 646.327 671.16 618.245 671.16V726.16V781.16C665.391 781.16 709.229 768.949 744.521 739.644L709.385 697.33ZM618.865 659.82V714.82C653.774 714.82 684.558 699.73 705.337 670.894L660.715 638.74L616.093 606.586C615.801 606.992 615.798 606.91 616.173 606.582C616.566 606.238 617.163 605.809 617.916 605.43C618.665 605.052 619.273 604.873 619.584 604.804C619.87 604.741 619.679 604.82 618.865 604.82V659.82ZM660.715 638.74L705.252 671.013C722.081 647.787 731.6 619.766 736.629 590.347L682.415 581.08L628.202 571.813C624.964 590.754 620.016 601.172 616.179 606.467L660.715 638.74ZM682.415 581.08L736.565 590.717C741.577 562.551 743.925 531.974 743.925 499.24H688.925H633.925C633.925 526.853 631.934 550.836 628.266 571.443L682.415 581.08ZM688.925 499.24H743.925C743.925 464.938 741.487 433.406 736.158 405.066L682.105 415.23L628.053 425.394C631.817 445.414 633.925 469.889 633.925 499.24H688.925ZM682.105 415.23L736.255 405.593C731.024 376.205 721.34 347.951 703.935 324.978L660.095 358.19L616.255 391.402C619.518 395.709 624.506 405.481 627.956 424.867L682.105 415.23ZM660.095 358.19L704.49 325.722C683.86 297.514 653.521 282.42 618.865 282.42V337.42V392.42C619.541 392.42 619.625 392.486 619.257 392.404C618.865 392.317 618.214 392.117 617.448 391.732C616.682 391.346 616.092 390.919 615.719 390.595C615.364 390.286 615.387 390.228 615.701 390.658L660.095 358.19ZM618.865 337.42V282.42C584.317 282.42 553.999 297.214 532.942 324.877L576.705 358.19L620.469 391.503C620.867 390.98 620.987 390.928 620.756 391.123C620.509 391.332 620.063 391.652 619.456 391.95C618.852 392.248 618.359 392.391 618.113 392.445C617.889 392.494 618.096 392.42 618.865 392.42V337.42ZM576.705 358.19L532.865 324.978C515.581 347.793 505.777 375.866 500.317 405.149L554.385 415.23L608.454 425.311C612.087 405.82 617.163 395.867 620.545 391.402L576.705 358.19ZM554.385 415.23L500.333 405.066C495.004 433.406 492.565 464.938 492.565 499.24H547.565H602.565C602.565 469.888 604.673 445.414 608.438 425.394L554.385 415.23ZM547.565 499.24H492.565C492.565 531.974 494.914 562.551 499.926 590.717L554.075 581.08L608.224 571.443C604.557 550.836 602.565 526.853 602.565 499.24H547.565ZM554.075 581.08L500.023 591.244C505.512 620.437 515.258 648.104 531.859 671.013L576.395 638.74L620.932 606.467C616.865 600.856 611.732 590.083 608.128 570.916L554.075 581.08ZM576.395 638.74L532.395 671.74C553.466 699.834 584.021 714.82 618.865 714.82V659.82V604.82C618.055 604.82 617.823 604.741 618.034 604.788C618.269 604.839 618.76 604.982 619.371 605.285C619.983 605.589 620.434 605.915 620.685 606.129C620.92 606.329 620.797 606.275 620.395 605.74L576.395 638.74Z" fill="#00611C" fill-opacity="0.7" mask="url(#path-11-outside-1_3590_52)"/>
</g>
<defs>
<filter id="filter0_d_3590_52" x="50.4816" y="217.32" width="784.244" height="571.84" filterUnits="userSpaceOnUse" color-interpolation-filters="sRGB">
<feFlood flood-opacity="0" result="BackgroundImageFix"/>
<feColorMatrix in="SourceAlpha" type="matrix" values="0 0 0 0 0 0 0 0 0 0 0 0 0 0 0 0 0 0 127 0" result="hardAlpha"/>
<feOffset dy="4"/>
<feGaussianBlur stdDeviation="2"/>
<feComposite in2="hardAlpha" operator="out"/>
<feColorMatrix type="matrix" values="0 0 0 0 0 0 0 0 0 0 0 0 0 0 0 0 0 0 0.25 0"/>
<feBlend mode="normal" in2="BackgroundImageFix" result="effect1_dropShadow_3590_52"/>
<feBlend mode="normal" in="SourceGraphic" in2="effect1_dropShadow_3590_52" result="shape"/>
</filter>
<linearGradient id="paint0_linear_3590_52" x1="231.95" y1="1.20459" x2="231.95" y2="355.201" gradientUnits="userSpaceOnUse">
<stop offset="0.278846" stop-color="#FFB75C"/>
<stop offset="1" stop-color="#694C27"/>
</linearGradient>
<linearGradient id="paint1_linear_3590_52" x1="657.792" y1="-0.000274658" x2="657.792" y2="355.201" gradientUnits="userSpaceOnUse">
<stop offset="0.278846" stop-color="#FFB75C"/>
<stop offset="1" stop-color="#694C27"/>
</linearGradient>
<linearGradient id="paint2_linear_3590_52" x1="445.176" y1="46.8361" x2="445.176" y2="362.777" gradientUnits="userSpaceOnUse">
<stop offset="0.278846" stop-color="#FFB75C"/>
<stop offset="1" stop-color="#694C27"/>
</linearGradient>
<linearGradient id="paint3_linear_3590_52" x1="103.541" y1="270.663" x2="103.541" y2="730.579" gradientUnits="userSpaceOnUse">
<stop stop-color="#FFB75C"/>
<stop offset="1" stop-color="#694C27"/>
</linearGradient>
<linearGradient id="paint4_linear_3590_52" x1="787.193" y1="273.88" x2="787.193" y2="728.819" gradientUnits="userSpaceOnUse">
<stop stop-color="#FFB75C"/>
<stop offset="1" stop-color="#694C27"/>
</linearGradient>
<linearGradient id="paint5_linear_3590_52" x1="445.144" y1="396.992" x2="445.144" y2="715.32" gradientUnits="userSpaceOnUse">
<stop stop-color="#FFB75C"/>
<stop offset="1" stop-color="#694C27"/>
</linearGradient>
<linearGradient id="paint6_linear_3590_52" x1="230.203" y1="417.764" x2="230.203" y2="734.138" gradientUnits="userSpaceOnUse">
<stop stop-color="#FFB75C"/>
<stop offset="1" stop-color="#694C27"/>
</linearGradient>
<linearGradient id="paint7_linear_3590_52" x1="660.11" y1="418.334" x2="660.11" y2="734.138" gradientUnits="userSpaceOnUse">
<stop stop-color="#FFB75C"/>
<stop offset="1" stop-color="#694C27"/>
</linearGradient>
<linearGradient id="paint8_linear_3590_52" x1="253.106" y1="425.854" x2="226.731" y2="972.158" gradientUnits="userSpaceOnUse">
<stop stop-color="#FFB75C"/>
<stop offset="1" stop-color="#694C27"/>
</linearGradient>
<linearGradient id="paint9_linear_3590_52" x1="650.871" y1="532.3" x2="650.871" y2="958.152" gradientUnits="userSpaceOnUse">
<stop stop-color="#FFB75C"/>
<stop offset="1" stop-color="#694C27"/>
</linearGradient>
</defs>
</svg>
