<svg width="555" height="566" viewBox="0 0 555 566" fill="none" xmlns="http://www.w3.org/2000/svg">
<g filter="url(#filter0_d_2717_74)">
<mask id="path-1-outside-1_2717_74" maskUnits="userSpaceOnUse" x="1.97949" y="0" width="550" height="560" fill="black">
<rect fill="white" x="1.97949" width="550" height="560"/>
<path d="M219.847 530V328H32.8467V230H219.847V30H327.847V230H521.847V328H327.847V530H219.847Z"/>
</mask>
<path d="M219.847 530V328H32.8467V230H219.847V30H327.847V230H521.847V328H327.847V530H219.847Z" fill="url(#paint0_linear_2717_74)" shape-rendering="crispEdges"/>
<path d="M219.847 530H189.847V560H219.847V530ZM219.847 328H249.847V298H219.847V328ZM32.8467 328H2.84668V358H32.8467V328ZM32.8467 230V200H2.84668V230H32.8467ZM219.847 230V260H249.847V230H219.847ZM219.847 30V-3.05176e-05H189.847V30H219.847ZM327.847 30H357.847V-3.05176e-05H327.847V30ZM327.847 230H297.847V260H327.847V230ZM521.847 230H551.847V200H521.847V230ZM521.847 328V358H551.847V328H521.847ZM327.847 328V298H297.847V328H327.847ZM327.847 530V560H357.847V530H327.847ZM219.847 530H249.847V328H219.847H189.847V530H219.847ZM219.847 328V298H32.8467V328V358H219.847V328ZM32.8467 328H62.8467V230H32.8467H2.84668V328H32.8467ZM32.8467 230V260H219.847V230V200H32.8467V230ZM219.847 230H249.847V30H219.847H189.847V230H219.847ZM219.847 30V60H327.847V30V-3.05176e-05H219.847V30ZM327.847 30H297.847V230H327.847H357.847V30H327.847ZM327.847 230V260H521.847V230V200H327.847V230ZM521.847 230H491.847V328H521.847H551.847V230H521.847ZM521.847 328V298H327.847V328V358H521.847V328ZM327.847 328H297.847V530H327.847H357.847V328H327.847ZM327.847 530V500H219.847V530V560H327.847V530Z" fill="#996E37" fill-opacity="0.6" mask="url(#path-1-outside-1_2717_74)"/>
</g>
<defs>
<filter id="filter0_d_2717_74" x="-0.000216722" y="0" width="554.694" height="565.694" filterUnits="userSpaceOnUse" color-interpolation-filters="sRGB">
<feFlood flood-opacity="0" result="BackgroundImageFix"/>
<feColorMatrix in="SourceAlpha" type="matrix" values="0 0 0 0 0 0 0 0 0 0 0 0 0 0 0 0 0 0 127 0" result="hardAlpha"/>
<feOffset dy="2.8469"/>
<feGaussianBlur stdDeviation="1.42345"/>
<feComposite in2="hardAlpha" operator="out"/>
<feColorMatrix type="matrix" values="0 0 0 0 0 0 0 0 0 0 0 0 0 0 0 0 0 0 0.25 0"/>
<feBlend mode="normal" in2="BackgroundImageFix" result="effect1_dropShadow_2717_74"/>
<feBlend mode="normal" in="SourceGraphic" in2="effect1_dropShadow_2717_74" result="shape"/>
</filter>
<linearGradient id="paint0_linear_2717_74" x1="276.979" y1="196.25" x2="276.979" y2="427" gradientUnits="userSpaceOnUse">
<stop stop-color="#FFB75C"/>
<stop offset="1" stop-color="#996E37"/>
</linearGradient>
</defs>
</svg>
