<svg width="1529" height="973" viewBox="0 0 1529 973" fill="none" xmlns="http://www.w3.org/2000/svg">
<path d="M551.733 119.837C443.184 185.2 354.529 239.528 354.313 240.377C354.313 242.712 543.3 356.673 544.814 355.188C547.408 352.429 750.234 1.84283 749.586 1.20618C749.153 0.993958 660.282 54.261 551.733 119.837Z" fill="url(#paint0_linear_3590_52)"/>
<path d="M780.287 1.20181C780.287 2.68735 983.329 352.849 985.492 355.183C987.221 356.881 1175.99 242.919 1175.99 240.373C1175.99 239.524 1088.2 185.832 980.951 121.106C756.934 -14.5024 780.287 -0.495941 780.287 1.20181Z" fill="url(#paint1_linear_3590_52)"/>
<path d="M672.628 204.516L581.378 361.982L673.277 362.619C723.875 362.831 806.476 362.831 857.074 362.619L948.973 361.982L857.723 204.516C807.341 117.718 765.824 46.8371 765.176 46.8371C764.527 46.8371 723.01 117.718 672.628 204.516Z" fill="url(#paint2_linear_3590_52)"/>
<path d="M334.636 276.426C334.636 280.246 330.96 384.445 326.635 507.745C322.31 631.044 319.283 731.424 320.148 730.575C321.013 729.726 363.178 659.906 413.993 575.23C464.591 490.555 510.865 413.519 516.703 403.969L527.082 386.568L433.886 329.693C382.639 298.497 339.393 271.969 337.663 271.12C335.5 269.847 334.852 271.12 334.636 276.426Z" fill="url(#paint3_linear_3590_52)"/>
<path d="M1099.65 328.023C1047.54 359.856 1004.73 386.383 1004.51 387.02C1004.08 388.081 1203.66 721.689 1208.85 728.693C1211.01 731.664 1209.93 683.49 1203.88 506.924C1199.34 382.775 1195.45 278.788 1195.23 275.817C1194.36 270.512 1190.69 272.634 1099.65 328.023Z" fill="url(#paint4_linear_3590_52)"/>
<path d="M582.211 400.6C584.589 406.755 764.062 715.321 765.144 715.321C766.225 715.321 945.698 406.755 948.076 400.6C949.374 397.205 938.346 396.993 765.144 396.993C591.941 396.993 580.913 397.205 582.211 400.6Z" fill="url(#paint5_linear_3590_52)"/>
<path d="M457.655 574.815L365.54 733.343L458.52 733.98C509.551 734.192 592.584 734.192 643.183 733.98L734.865 733.343L643.831 576.301C593.665 489.927 552.149 418.622 551.284 417.773C550.419 416.924 508.254 487.593 457.655 574.815Z" fill="url(#paint6_linear_3590_52)"/>
<path d="M915.457 526.641C879.995 587.761 838.478 659.278 823.126 685.594L795.448 733.343L888.644 733.98C939.891 734.192 1022.92 734.192 1073.31 733.98L1164.77 733.343L1074.17 577.362C1024.22 491.625 982.489 420.107 981.624 418.41C980.327 416.5 959.352 451.091 915.457 526.641Z" fill="url(#paint7_linear_3590_52)"/>
<path d="M344.561 770.714C343.696 771.988 343.479 773.261 343.696 773.685C344.128 773.898 435.378 818.888 546.306 873.216L747.834 972.11V870.245V768.38H546.954C406.836 768.38 345.426 769.017 344.561 770.714Z" fill="url(#paint8_linear_3590_52)"/>
<path d="M782.467 870.444V972.31L826.363 950.027C850.364 937.93 940.101 892.515 1025.73 849.01C1111.36 805.718 1181.85 769.852 1182.28 769.216C1182.71 768.791 1092.98 768.367 982.915 768.367H782.467V870.444Z" fill="url(#paint9_linear_3590_52)"/>
<g filter="url(#filter0_d_3590_52)">
<mask id="path-11-outside-1_3590_52" maskUnits="userSpaceOnUse" x="374" y="217" width="777" height="565" fill="black">
<rect fill="white" x="374" y="217" width="777" height="565"/>
<path d="M526.846 644.32H728.346V715H449.966C448.726 708.387 447.693 701.773 446.866 695.16C446.04 688.34 445.626 680.487 445.626 671.6C445.626 645.353 449.863 622.93 458.336 604.33C467.016 585.73 479.623 569.093 496.156 554.42C512.896 539.747 533.46 525.28 557.846 511.02C571.28 503.167 584.713 494.487 598.146 484.98C611.58 475.473 622.74 464.21 631.626 451.19C640.72 437.963 645.266 421.947 645.266 403.14C645.266 387.02 640.203 372.657 630.076 360.05C620.156 347.443 604.14 341.14 582.026 341.14C559.086 341.14 540.693 348.58 526.846 363.46C513.206 378.34 504.526 397.56 500.806 421.12L435.086 390.12C438.393 368.627 446.763 348.993 460.196 331.22C473.63 313.24 491.196 298.98 512.896 288.44C534.596 277.693 559.5 272.32 587.606 272.32C613.233 272.32 636.483 277.177 657.356 286.89C678.23 296.397 694.866 310.347 707.266 328.74C719.666 347.133 725.866 369.453 725.866 395.7C725.866 422.567 721.01 445.817 711.296 465.45C701.583 485.083 687.22 502.96 668.206 519.08C649.4 535.2 626.253 551.527 598.766 568.06C579.34 579.84 563.323 590.897 550.716 601.23C538.316 611.357 530.36 625.72 526.846 644.32ZM938.245 726.16C900.632 726.16 870.252 716.55 847.105 697.33C823.959 677.903 807.115 651.243 796.575 617.35C786.035 583.25 780.765 544.087 780.765 499.86C780.765 422.567 794.509 365.32 821.995 328.12C849.689 290.92 888.439 272.32 938.245 272.32C988.259 272.32 1027.01 290.92 1054.5 328.12C1081.98 365.32 1095.73 422.567 1095.73 499.86C1095.73 544.087 1090.46 583.25 1079.92 617.35C1069.38 651.243 1052.53 677.903 1029.39 697.33C1006.24 716.55 975.859 726.16 938.245 726.16ZM938.865 659.82C956.639 659.82 970.589 652.793 980.715 638.74C991.049 624.48 998.282 605.26 1002.42 581.08C1006.76 556.693 1008.93 529.413 1008.93 499.24C1008.93 467.413 1006.65 439.41 1002.11 415.23C997.765 390.843 990.429 371.83 980.095 358.19C969.969 344.343 956.225 337.42 938.865 337.42C921.299 337.42 907.245 344.343 896.705 358.19C886.372 371.83 878.932 390.843 874.385 415.23C869.839 439.41 867.565 467.413 867.565 499.24C867.565 529.413 869.735 556.693 874.075 581.08C878.622 605.26 886.062 624.48 896.395 638.74C906.935 652.793 921.092 659.82 938.865 659.82Z"/>
</mask>
<path d="M526.846 644.32H728.346V715H449.966C448.726 708.387 447.693 701.773 446.866 695.16C446.04 688.34 445.626 680.487 445.626 671.6C445.626 645.353 449.863 622.93 458.336 604.33C467.016 585.73 479.623 569.093 496.156 554.42C512.896 539.747 533.46 525.28 557.846 511.02C571.28 503.167 584.713 494.487 598.146 484.98C611.58 475.473 622.74 464.21 631.626 451.19C640.72 437.963 645.266 421.947 645.266 403.14C645.266 387.02 640.203 372.657 630.076 360.05C620.156 347.443 604.14 341.14 582.026 341.14C559.086 341.14 540.693 348.58 526.846 363.46C513.206 378.34 504.526 397.56 500.806 421.12L435.086 390.12C438.393 368.627 446.763 348.993 460.196 331.22C473.63 313.24 491.196 298.98 512.896 288.44C534.596 277.693 559.5 272.32 587.606 272.32C613.233 272.32 636.483 277.177 657.356 286.89C678.23 296.397 694.866 310.347 707.266 328.74C719.666 347.133 725.866 369.453 725.866 395.7C725.866 422.567 721.01 445.817 711.296 465.45C701.583 485.083 687.22 502.96 668.206 519.08C649.4 535.2 626.253 551.527 598.766 568.06C579.34 579.84 563.323 590.897 550.716 601.23C538.316 611.357 530.36 625.72 526.846 644.32ZM938.245 726.16C900.632 726.16 870.252 716.55 847.105 697.33C823.959 677.903 807.115 651.243 796.575 617.35C786.035 583.25 780.765 544.087 780.765 499.86C780.765 422.567 794.509 365.32 821.995 328.12C849.689 290.92 888.439 272.32 938.245 272.32C988.259 272.32 1027.01 290.92 1054.5 328.12C1081.98 365.32 1095.73 422.567 1095.73 499.86C1095.73 544.087 1090.46 583.25 1079.92 617.35C1069.38 651.243 1052.53 677.903 1029.39 697.33C1006.24 716.55 975.859 726.16 938.245 726.16ZM938.865 659.82C956.639 659.82 970.589 652.793 980.715 638.74C991.049 624.48 998.282 605.26 1002.42 581.08C1006.76 556.693 1008.93 529.413 1008.93 499.24C1008.93 467.413 1006.65 439.41 1002.11 415.23C997.765 390.843 990.429 371.83 980.095 358.19C969.969 344.343 956.225 337.42 938.865 337.42C921.299 337.42 907.245 344.343 896.705 358.19C886.372 371.83 878.932 390.843 874.385 415.23C869.839 439.41 867.565 467.413 867.565 499.24C867.565 529.413 869.735 556.693 874.075 581.08C878.622 605.26 886.062 624.48 896.395 638.74C906.935 652.793 921.092 659.82 938.865 659.82Z" fill="#00FF48" shape-rendering="crispEdges"/>
<path d="M526.846 644.32L472.802 634.112L460.485 699.32H526.846V644.32ZM728.346 644.32H783.346V589.32H728.346V644.32ZM728.346 715V770H783.346V715H728.346ZM449.966 715L395.908 725.136L404.32 770H449.966V715ZM446.866 695.16L392.266 701.778L392.278 701.88L392.291 701.982L446.866 695.16ZM458.336 604.33L408.496 581.071L408.39 581.3L408.285 581.529L458.336 604.33ZM496.156 554.42L459.902 513.06L459.775 513.172L459.648 513.284L496.156 554.42ZM557.846 511.02L530.088 463.539L530.083 463.541L557.846 511.02ZM631.626 451.19L586.304 420.031L586.251 420.107L586.199 420.184L631.626 451.19ZM630.076 360.05L586.853 394.061L587.024 394.279L587.197 394.494L630.076 360.05ZM526.846 363.46L486.582 325.992L486.442 326.143L486.303 326.295L526.846 363.46ZM500.806 421.12L477.342 470.864L543.692 502.161L555.133 429.698L500.806 421.12ZM435.086 390.12L380.726 381.757L374.482 422.345L411.622 439.864L435.086 390.12ZM460.196 331.22L504.073 364.383L504.166 364.261L504.257 364.139L460.196 331.22ZM512.896 288.44L536.926 337.913L537.116 337.821L537.305 337.727L512.896 288.44ZM657.356 286.89L634.152 336.755L634.355 336.85L634.56 336.943L657.356 286.89ZM711.296 465.45L661.999 441.061V441.061L711.296 465.45ZM668.206 519.08L632.639 477.128L632.525 477.224L632.413 477.321L668.206 519.08ZM598.766 568.06L570.417 520.929L570.333 520.98L570.249 521.031L598.766 568.06ZM550.716 601.23L585.506 643.829L585.544 643.798L585.582 643.767L550.716 601.23ZM526.846 644.32V699.32H728.346V644.32V589.32H526.846V644.32ZM728.346 644.32H673.346V715H728.346H783.346V644.32H728.346ZM728.346 715V660H449.966V715V770H728.346V715ZM449.966 715L504.024 704.864C502.988 699.339 502.128 693.831 501.442 688.338L446.866 695.16L392.291 701.982C393.258 709.715 394.464 717.434 395.908 725.136L449.966 715ZM446.866 695.16L501.467 688.542C500.97 684.445 500.626 678.879 500.626 671.6H445.626H390.626C390.626 682.095 391.109 692.235 392.266 701.778L446.866 695.16ZM445.626 671.6H500.626C500.626 651.069 503.963 636.844 508.387 627.131L458.336 604.33L408.285 581.529C395.763 609.016 390.626 639.638 390.626 671.6H445.626ZM458.336 604.33L508.176 627.589C513.441 616.307 521.311 605.632 532.664 595.556L496.156 554.42L459.648 513.284C437.934 532.555 420.591 555.153 408.496 581.071L458.336 604.33ZM496.156 554.42L532.41 595.78C545.93 583.929 563.477 571.44 585.609 558.499L557.846 511.02L530.083 463.541C503.442 479.12 479.862 495.564 459.902 513.06L496.156 554.42ZM557.846 511.02L585.605 558.501C600.489 549.8 615.259 540.249 629.918 529.875L598.146 484.98L566.374 440.085C554.167 448.724 542.071 456.533 530.088 463.539L557.846 511.02ZM598.146 484.98L629.918 529.875C648.455 516.756 664.317 500.857 677.053 482.196L631.626 451.19L586.199 420.184C581.162 427.563 574.704 434.19 566.374 440.085L598.146 484.98ZM631.626 451.19L676.949 482.349C693.371 458.462 700.266 431.113 700.266 403.14H645.266H590.266C590.266 412.78 588.068 417.465 586.304 420.031L631.626 451.19ZM645.266 403.14H700.266C700.266 374.451 690.9 347.945 672.955 325.606L630.076 360.05L587.197 394.494C589.506 397.368 590.266 399.589 590.266 403.14H645.266ZM630.076 360.05L673.299 326.039C649.376 295.636 614.223 286.14 582.026 286.14V341.14V396.14C584.97 396.14 587.084 396.352 588.498 396.585C589.9 396.817 590.491 397.05 590.482 397.047C590.443 397.031 589.896 396.806 589.091 396.219C588.268 395.619 587.487 394.867 586.853 394.061L630.076 360.05ZM582.026 341.14V286.14C545.98 286.14 512.224 298.438 486.582 325.992L526.846 363.46L567.11 400.928C569.162 398.722 572.193 396.14 582.026 396.14V341.14ZM526.846 363.46L486.303 326.295C464.115 350.5 451.573 380.282 446.479 412.542L500.806 421.12L555.133 429.698C557.479 414.838 562.297 406.18 567.39 400.625L526.846 363.46ZM500.806 421.12L524.27 371.376L458.55 340.376L435.086 390.12L411.622 439.864L477.342 470.864L500.806 421.12ZM435.086 390.12L489.447 398.483C491.333 386.224 495.995 375.071 504.073 364.383L460.196 331.22L416.319 298.057C397.531 322.915 385.453 351.029 380.726 381.757L435.086 390.12ZM460.196 331.22L504.257 364.139C512.042 353.718 522.523 344.909 536.926 337.913L512.896 288.44L488.867 238.967C459.869 253.051 435.217 272.762 416.136 298.301L460.196 331.22ZM512.896 288.44L537.305 337.727C550.286 331.298 566.608 327.32 587.606 327.32V272.32V217.32C552.392 217.32 518.906 224.088 488.487 239.153L512.896 288.44ZM587.606 272.32V327.32C606.13 327.32 621.331 330.789 634.152 336.755L657.356 286.89L680.561 237.025C651.634 223.564 620.336 217.32 587.606 217.32V272.32ZM657.356 286.89L634.56 336.943C646.524 342.392 655.136 349.804 661.662 359.485L707.266 328.74L752.871 297.995C734.597 270.889 709.935 250.401 680.153 236.837L657.356 286.89ZM707.266 328.74L661.662 359.485C666.885 367.233 670.866 378.36 670.866 395.7H725.866H780.866C780.866 360.546 772.447 327.034 752.871 297.995L707.266 328.74ZM725.866 395.7H670.866C670.866 415.989 667.207 430.534 661.999 441.061L711.296 465.45L760.593 489.839C774.812 461.099 780.866 429.144 780.866 395.7H725.866ZM711.296 465.45L661.999 441.061C656.045 453.097 646.712 465.196 632.639 477.128L668.206 519.08L703.774 561.032C727.727 540.724 747.121 517.07 760.593 489.839L711.296 465.45ZM668.206 519.08L632.413 477.321C616.496 490.964 595.999 505.541 570.417 520.929L598.766 568.06L627.116 615.191C656.507 597.512 682.303 579.436 704 560.839L668.206 519.08ZM598.766 568.06L570.249 521.031C549.396 533.676 531.073 546.216 515.85 558.693L550.716 601.23L585.582 643.767C595.573 635.577 609.284 626.004 627.284 615.089L598.766 568.06ZM550.716 601.23L515.927 558.631C491.731 578.391 478.26 605.217 472.802 634.112L526.846 644.32L580.891 654.528C582.459 646.223 584.902 644.322 585.506 643.829L550.716 601.23ZM847.105 697.33L811.747 739.459L811.858 739.552L811.97 739.644L847.105 697.33ZM796.575 617.35L744.028 633.592L744.042 633.637L744.056 633.682L796.575 617.35ZM821.995 328.12L777.878 295.277L777.819 295.356L777.76 295.435L821.995 328.12ZM1054.5 328.12L1010.26 360.805H1010.26L1054.5 328.12ZM1079.92 617.35L1132.43 633.682L1132.45 633.637L1132.46 633.592L1079.92 617.35ZM1029.39 697.33L1064.52 739.644L1064.63 739.552L1064.74 739.459L1029.39 697.33ZM980.715 638.74L936.179 606.467L936.136 606.527L936.093 606.586L980.715 638.74ZM1002.42 581.08L948.266 571.443L948.233 571.628L948.202 571.813L1002.42 581.08ZM1002.11 415.23L947.956 424.867L948.003 425.13L948.053 425.394L1002.11 415.23ZM980.095 358.19L935.701 390.658L935.975 391.032L936.255 391.402L980.095 358.19ZM896.705 358.19L852.942 324.877L852.903 324.928L852.865 324.978L896.705 358.19ZM874.385 415.23L928.438 425.394L928.446 425.352L928.454 425.311L874.385 415.23ZM874.075 581.08L819.926 590.717L819.973 590.98L820.023 591.244L874.075 581.08ZM896.395 638.74L851.859 671.013L852.124 671.379L852.395 671.74L896.395 638.74ZM938.245 726.16V671.16C910.164 671.16 893.242 664.151 882.241 655.016L847.105 697.33L811.97 739.644C847.262 768.949 891.1 781.16 938.245 781.16V726.16ZM847.105 697.33L882.463 655.201C868.715 643.663 857.06 626.634 849.094 601.018L796.575 617.35L744.056 633.682C757.17 675.853 779.203 712.144 811.747 739.459L847.105 697.33ZM796.575 617.35L849.122 601.108C840.543 573.35 835.765 539.84 835.765 499.86H780.765H725.765C725.765 548.333 731.528 593.15 744.028 633.592L796.575 617.35ZM780.765 499.86H835.765C835.765 427.167 849.045 384.063 866.23 360.805L821.995 328.12L777.76 295.435C739.972 346.577 725.765 417.967 725.765 499.86H780.765ZM821.995 328.12L866.113 360.963C882.565 338.862 904.323 327.32 938.245 327.32V272.32V217.32C872.554 217.32 816.812 242.978 777.878 295.277L821.995 328.12ZM938.245 272.32V327.32C972.458 327.32 994.087 338.915 1010.26 360.805L1054.5 328.12L1098.73 295.435C1059.93 242.925 1004.06 217.32 938.245 217.32V272.32ZM1054.5 328.12L1010.26 360.805C1027.45 384.063 1040.73 427.167 1040.73 499.86H1095.73H1150.73C1150.73 417.967 1136.52 346.577 1098.73 295.435L1054.5 328.12ZM1095.73 499.86H1040.73C1040.73 539.84 1035.95 573.35 1027.37 601.108L1079.92 617.35L1132.46 633.592C1144.96 593.15 1150.73 548.333 1150.73 499.86H1095.73ZM1079.92 617.35L1027.4 601.018C1019.43 626.634 1007.78 643.663 994.027 655.201L1029.39 697.33L1064.74 739.459C1097.29 712.144 1119.32 675.853 1132.43 633.682L1079.92 617.35ZM1029.39 697.33L994.25 655.016C983.248 664.151 966.327 671.16 938.245 671.16V726.16V781.16C985.391 781.16 1029.23 768.949 1064.52 739.644L1029.39 697.33ZM938.865 659.82V714.82C973.774 714.82 1004.56 699.73 1025.34 670.894L980.715 638.74L936.093 606.586C935.801 606.992 935.798 606.91 936.173 606.582C936.566 606.238 937.163 605.809 937.916 605.43C938.665 605.052 939.273 604.873 939.584 604.804C939.87 604.741 939.679 604.82 938.865 604.82V659.82ZM980.715 638.74L1025.25 671.013C1042.08 647.787 1051.6 619.766 1056.63 590.347L1002.42 581.08L948.202 571.813C944.964 590.754 940.016 601.172 936.179 606.467L980.715 638.74ZM1002.42 581.08L1056.56 590.717C1061.58 562.551 1063.93 531.974 1063.93 499.24H1008.93H953.925C953.925 526.853 951.934 550.836 948.266 571.443L1002.42 581.08ZM1008.93 499.24H1063.93C1063.93 464.938 1061.49 433.406 1056.16 405.066L1002.11 415.23L948.053 425.394C951.817 445.414 953.925 469.889 953.925 499.24H1008.93ZM1002.11 415.23L1056.25 405.593C1051.02 376.205 1041.34 347.951 1023.94 324.978L980.095 358.19L936.255 391.402C939.518 395.709 944.506 405.481 947.956 424.867L1002.11 415.23ZM980.095 358.19L1024.49 325.722C1003.86 297.514 973.521 282.42 938.865 282.42V337.42V392.42C939.541 392.42 939.625 392.486 939.257 392.404C938.865 392.317 938.214 392.117 937.448 391.732C936.682 391.346 936.092 390.919 935.719 390.595C935.364 390.286 935.387 390.228 935.701 390.658L980.095 358.19ZM938.865 337.42V282.42C904.317 282.42 873.999 297.214 852.942 324.877L896.705 358.19L940.469 391.503C940.867 390.98 940.987 390.928 940.756 391.123C940.509 391.332 940.063 391.652 939.456 391.95C938.852 392.248 938.359 392.391 938.113 392.445C937.889 392.494 938.096 392.42 938.865 392.42V337.42ZM896.705 358.19L852.865 324.978C835.581 347.793 825.777 375.866 820.317 405.149L874.385 415.23L928.454 425.311C932.087 405.82 937.163 395.867 940.545 391.402L896.705 358.19ZM874.385 415.23L820.333 405.066C815.004 433.406 812.565 464.938 812.565 499.24H867.565H922.565C922.565 469.888 924.673 445.414 928.438 425.394L874.385 415.23ZM867.565 499.24H812.565C812.565 531.974 814.914 562.551 819.926 590.717L874.075 581.08L928.224 571.443C924.557 550.836 922.565 526.853 922.565 499.24H867.565ZM874.075 581.08L820.023 591.244C825.512 620.437 835.258 648.104 851.859 671.013L896.395 638.74L940.932 606.467C936.865 600.856 931.732 590.083 928.128 570.916L874.075 581.08ZM896.395 638.74L852.395 671.74C873.466 699.834 904.021 714.82 938.865 714.82V659.82V604.82C938.055 604.82 937.823 604.741 938.034 604.788C938.269 604.839 938.76 604.982 939.371 605.285C939.983 605.589 940.434 605.915 940.685 606.129C940.92 606.329 940.797 606.275 940.395 605.74L896.395 638.74Z" fill="#00611C" fill-opacity="0.7" mask="url(#path-11-outside-1_3590_52)"/>
</g>
<defs>
<filter id="filter0_d_3590_52" x="370.482" y="217.32" width="784.244" height="571.84" filterUnits="userSpaceOnUse" color-interpolation-filters="sRGB">
<feFlood flood-opacity="0" result="BackgroundImageFix"/>
<feColorMatrix in="SourceAlpha" type="matrix" values="0 0 0 0 0 0 0 0 0 0 0 0 0 0 0 0 0 0 127 0" result="hardAlpha"/>
<feOffset dy="4"/>
<feGaussianBlur stdDeviation="2"/>
<feComposite in2="hardAlpha" operator="out"/>
<feColorMatrix type="matrix" values="0 0 0 0 0 0 0 0 0 0 0 0 0 0 0 0 0 0 0.25 0"/>
<feBlend mode="normal" in2="BackgroundImageFix" result="effect1_dropShadow_3590_52"/>
<feBlend mode="normal" in="SourceGraphic" in2="effect1_dropShadow_3590_52" result="shape"/>
</filter>
<linearGradient id="paint0_linear_3590_52" x1="551.95" y1="1.20557" x2="551.95" y2="355.202" gradientUnits="userSpaceOnUse">
<stop offset="0.278846" stop-color="#FFB75C"/>
<stop offset="1" stop-color="#694C27"/>
</linearGradient>
<linearGradient id="paint1_linear_3590_52" x1="977.792" y1="0.000701904" x2="977.792" y2="355.202" gradientUnits="userSpaceOnUse">
<stop offset="0.278846" stop-color="#FFB75C"/>
<stop offset="1" stop-color="#694C27"/>
</linearGradient>
<linearGradient id="paint2_linear_3590_52" x1="765.176" y1="46.8371" x2="765.176" y2="362.778" gradientUnits="userSpaceOnUse">
<stop offset="0.278846" stop-color="#FFB75C"/>
<stop offset="1" stop-color="#694C27"/>
</linearGradient>
<linearGradient id="paint3_linear_3590_52" x1="423.541" y1="270.664" x2="423.541" y2="730.58" gradientUnits="userSpaceOnUse">
<stop stop-color="#FFB75C"/>
<stop offset="1" stop-color="#694C27"/>
</linearGradient>
<linearGradient id="paint4_linear_3590_52" x1="1107.19" y1="273.881" x2="1107.19" y2="728.82" gradientUnits="userSpaceOnUse">
<stop stop-color="#FFB75C"/>
<stop offset="1" stop-color="#694C27"/>
</linearGradient>
<linearGradient id="paint5_linear_3590_52" x1="765.144" y1="396.993" x2="765.144" y2="715.321" gradientUnits="userSpaceOnUse">
<stop stop-color="#FFB75C"/>
<stop offset="1" stop-color="#694C27"/>
</linearGradient>
<linearGradient id="paint6_linear_3590_52" x1="550.203" y1="417.765" x2="550.203" y2="734.139" gradientUnits="userSpaceOnUse">
<stop stop-color="#FFB75C"/>
<stop offset="1" stop-color="#694C27"/>
</linearGradient>
<linearGradient id="paint7_linear_3590_52" x1="980.11" y1="418.335" x2="980.11" y2="734.139" gradientUnits="userSpaceOnUse">
<stop stop-color="#FFB75C"/>
<stop offset="1" stop-color="#694C27"/>
</linearGradient>
<linearGradient id="paint8_linear_3590_52" x1="573.106" y1="425.855" x2="546.731" y2="972.159" gradientUnits="userSpaceOnUse">
<stop stop-color="#FFB75C"/>
<stop offset="1" stop-color="#694C27"/>
</linearGradient>
<linearGradient id="paint9_linear_3590_52" x1="970.871" y1="532.301" x2="970.871" y2="958.153" gradientUnits="userSpaceOnUse">
<stop stop-color="#FFB75C"/>
<stop offset="1" stop-color="#694C27"/>
</linearGradient>
</defs>
</svg>
