<svg width="1006" height="1006" viewBox="0 0 1006 1006" fill="none" xmlns="http://www.w3.org/2000/svg">
<g filter="url(#filter0_d_2403_62)">
<path d="M317.117 518.063C317.117 534.661 310.443 550.478 298.665 562.195L246.058 614.528C221.913 638.547 182.262 636.79 149.088 628.588C140.058 626.44 130.439 625.073 120.625 625.073C55.6506 625.073 2.84692 677.602 2.84692 742.238C2.84692 806.874 55.6506 859.402 120.625 859.402C132.991 859.402 144.18 870.533 144.18 882.835C144.18 947.471 196.984 1000 261.958 1000C326.932 1000 379.736 947.471 379.736 882.835C379.736 873.072 378.558 863.699 376.202 854.521C367.958 821.519 365.995 782.074 390.336 758.055L442.943 705.722C454.721 694.005 470.621 687.366 487.306 687.366H662.402C674.769 687.366 686.743 686.78 698.717 685.413C722.076 683.07 730.91 655.145 719.917 634.642C703.232 603.788 693.81 568.639 693.81 531.146C693.81 410.271 792.154 312.439 913.661 312.439C929.365 312.439 944.48 314.001 959.202 317.126C982.169 322.007 1006.51 305.604 1002.39 282.757C973.532 122.046 832.198 0 662.402 0C471.602 0 316.921 153.876 316.921 343.683V517.868L317.117 518.063Z" fill="url(#paint0_linear_2403_62)"/>
</g>
<defs>
<filter id="filter0_d_2403_62" x="2.74181e-05" y="0" width="1005.69" height="1005.69" filterUnits="userSpaceOnUse" color-interpolation-filters="sRGB">
<feFlood flood-opacity="0" result="BackgroundImageFix"/>
<feColorMatrix in="SourceAlpha" type="matrix" values="0 0 0 0 0 0 0 0 0 0 0 0 0 0 0 0 0 0 127 0" result="hardAlpha"/>
<feOffset dy="2.8469"/>
<feGaussianBlur stdDeviation="1.42345"/>
<feComposite in2="hardAlpha" operator="out"/>
<feColorMatrix type="matrix" values="0 0 0 0 0 0 0 0 0 0 0 0 0 0 0 0 0 0 0.25 0"/>
<feBlend mode="normal" in2="BackgroundImageFix" result="effect1_dropShadow_2403_62"/>
<feBlend mode="normal" in="SourceGraphic" in2="effect1_dropShadow_2403_62" result="shape"/>
</filter>
<linearGradient id="paint0_linear_2403_62" x1="502.847" y1="55.5556" x2="502.847" y2="1138.89" gradientUnits="userSpaceOnUse">
<stop stop-color="#FFB75C"/>
<stop offset="1" stop-color="#694C27"/>
</linearGradient>
</defs>
</svg>
