<svg width="1000" height="1000" viewBox="0 0 1000 1000" fill="none" xmlns="http://www.w3.org/2000/svg">
<path d="M812.54 406.19C812.54 495.826 783.437 578.626 734.411 645.804L981.689 893.229C1006.1 917.639 1006.1 957.282 981.689 981.692C957.273 1006.1 917.623 1006.1 893.208 981.692L645.93 734.267C578.739 783.284 495.923 812.381 406.27 812.381C181.845 812.381 0 630.572 0 406.19C0 181.809 181.845 0 406.27 0C630.695 0 812.54 181.809 812.54 406.19ZM406.27 687.399C561.551 687.399 687.534 561.441 687.534 406.19C687.534 250.94 561.551 124.982 406.27 124.982C250.989 124.982 125.006 250.94 125.006 406.19C125.006 561.441 250.989 687.399 406.27 687.399Z" fill="url(#paint0_linear_3178_16)"/>
<defs>
<linearGradient id="paint0_linear_3178_16" x1="500" y1="0" x2="500" y2="1000" gradientUnits="userSpaceOnUse">
<stop stop-color="#FFB75C"/>
<stop offset="0.6" stop-color="#996E37"/>
</linearGradient>
</defs>
</svg>
