<svg width="649" height="498" viewBox="0 0 649 498" fill="none" xmlns="http://www.w3.org/2000/svg">
<g filter="url(#filter0_d_3641_76)">
<path d="M105.5 -3.33786e-05L155.2 199.5H158L207.7 -3.33786e-05H304.3L237.1 233.8L309.2 490H209.8L158 280H155.2L103.4 490H4.00002L76.1 233.8L8.90003 -3.33786e-05H105.5ZM446.34 84V259H508.64C534.307 238 547.14 207.2 547.14 166.6C547.14 149.333 543.64 133 536.64 117.6C530.107 102.2 522.173 91 512.84 84H446.34ZM351.84 490V-3.33786e-05H541.54C573.273 14 598.24 35.4666 616.44 64.4C635.107 93.3333 644.44 127.167 644.44 165.9C644.44 204.167 634.873 239.633 615.74 272.3C596.607 304.967 568.373 328.067 531.04 341.6H446.34V490H351.84Z" fill="url(#paint0_linear_3641_76)"/>
</g>
<defs>
<filter id="filter0_d_3641_76" x="0" y="0" width="648.44" height="498" filterUnits="userSpaceOnUse" color-interpolation-filters="sRGB">
<feFlood flood-opacity="0" result="BackgroundImageFix"/>
<feColorMatrix in="SourceAlpha" type="matrix" values="0 0 0 0 0 0 0 0 0 0 0 0 0 0 0 0 0 0 127 0" result="hardAlpha"/>
<feOffset dy="4"/>
<feGaussianBlur stdDeviation="2"/>
<feComposite in2="hardAlpha" operator="out"/>
<feColorMatrix type="matrix" values="0 0 0 0 0 0 0 0 0 0 0 0 0 0 0 0 0 0 0.25 0"/>
<feBlend mode="normal" in2="BackgroundImageFix" result="effect1_dropShadow_3641_76"/>
<feBlend mode="normal" in="SourceGraphic" in2="effect1_dropShadow_3641_76" result="shape"/>
</filter>
<linearGradient id="paint0_linear_3641_76" x1="328.494" y1="-266" x2="328.494" y2="500" gradientUnits="userSpaceOnUse">
<stop offset="0.365385" stop-color="#FFB75C"/>
<stop offset="1" stop-color="#996E37"/>
</linearGradient>
</defs>
</svg>
