<svg width="1000" height="1083" viewBox="0 0 1000 1083" fill="none" xmlns="http://www.w3.org/2000/svg">
<path d="M558.831 1058.6C526.292 1091.13 473.448 1091.13 440.908 1058.6L24.4045 642.108C-8.13484 609.57 -8.13484 556.728 24.4045 524.19C56.9439 491.652 109.788 491.652 142.327 524.19L500 881.849L857.673 524.45C890.212 491.912 943.056 491.912 975.595 524.45C1008.13 556.988 1008.13 609.83 975.595 642.368L559.091 1058.86L558.831 1058.6ZM975.335 142.322L558.831 558.81C526.292 591.348 473.448 591.348 440.908 558.81L24.4045 142.322C-8.13484 109.784 -8.13484 56.9418 24.4045 24.4036C56.9439 -8.13453 109.788 -8.13453 142.327 24.4036L500 382.063L857.673 24.6639C890.212 -7.87421 943.056 -7.87421 975.595 24.6639C1008.13 57.2021 1008.13 110.044 975.595 142.582L975.335 142.322Z" fill="#ED0202"/>
</svg>
