<svg width="1006" height="1006" viewBox="0 0 1006 1006" fill="none" xmlns="http://www.w3.org/2000/svg">
<g filter="url(#filter0_d_2399_58)">
<path d="M449.837 24.657C449.837 8.44241 435.658 -3.66967 420.919 1.01888C307.3 37.7458 224.838 149.099 224.838 280.574C224.838 329.608 236.218 375.712 256.554 416.346C217.375 419.863 178.196 432.365 141.816 454.441C33.7943 520.08 -16.3919 650.188 9.54073 771.895C13.0855 788.305 30.8093 795.337 44.8017 786.742C54.13 781.076 58.9807 769.941 58.0479 758.61C57.4882 752.164 57.3016 745.717 57.3016 738.879C57.3016 497.614 401.329 497.614 401.329 738.879C401.329 911.574 225.025 960.804 124.839 886.178C116.443 879.927 105.249 878.559 96.2939 884.029C83.2343 892.039 80.2493 910.597 91.2567 921.342C178.196 1006.91 311.405 1026.64 419.799 960.804C453.195 940.487 480.993 914.114 502.821 883.834C524.65 914.309 552.448 940.682 585.843 960.804C694.238 1026.64 827.446 1006.91 914.386 921.342C925.393 910.597 922.408 891.843 909.349 884.029C900.394 878.559 889.2 879.927 880.804 886.178C780.618 960.804 604.313 911.574 604.313 738.879C604.313 497.614 948.341 497.614 948.341 738.879C948.341 745.521 948.154 752.164 947.595 758.61C946.662 769.941 951.513 781.076 960.841 786.742C974.647 795.142 992.557 788.305 996.102 771.895C1022.03 650.383 971.848 520.08 863.827 454.441C827.446 432.365 788.454 419.863 749.089 416.346C769.424 375.712 780.805 329.608 780.805 280.574C780.805 149.099 698.343 37.7458 584.724 1.01888C569.985 -3.66967 555.806 8.44241 555.806 24.657C555.806 36.183 563.269 46.1462 573.53 50.444C729.126 116.084 705.619 398.96 503.008 398.96C300.397 398.96 276.517 116.084 432.113 50.444C442.374 46.1462 449.837 36.183 449.837 24.657ZM428.195 562.668C428.195 519.494 461.59 484.526 502.821 484.526C544.052 484.526 577.448 519.494 577.448 562.668C577.448 605.842 544.052 640.811 502.821 640.811C461.59 640.811 428.195 605.842 428.195 562.668ZM776.327 620.689C746.103 620.689 717.745 631.433 697.783 649.992C678.94 667.77 664.014 695.706 664.014 739.075C664.014 780.295 677.447 807.449 694.798 825.227C754.872 777.169 798.342 707.036 814.014 626.354C802.26 622.642 789.387 620.494 776.327 620.494V620.689ZM341.628 739.075C341.628 695.51 326.703 667.574 307.86 649.992C287.897 631.238 259.539 620.689 229.316 620.689C216.256 620.689 203.383 622.642 191.629 626.55C207.301 707.232 250.584 777.365 310.845 825.422C328.382 807.645 341.628 780.295 341.628 739.075ZM418.494 300.891C435.284 320.817 461.777 336.446 502.821 336.446C543.866 336.446 570.358 320.817 587.149 300.891C599.649 286.044 608.604 266.703 612.522 245.41C578.381 232.125 541.254 224.897 502.821 224.897C464.389 224.897 427.262 232.125 393.121 245.41C397.225 266.703 405.994 286.044 418.494 301.086V300.891Z" fill="url(#paint0_linear_2399_58)"/>
</g>
<defs>
<filter id="filter0_d_2399_58" x="-0.000210762" y="0" width="1005.64" height="1005.64" filterUnits="userSpaceOnUse" color-interpolation-filters="sRGB">
<feFlood flood-opacity="0" result="BackgroundImageFix"/>
<feColorMatrix in="SourceAlpha" type="matrix" values="0 0 0 0 0 0 0 0 0 0 0 0 0 0 0 0 0 0 127 0" result="hardAlpha"/>
<feOffset dy="2.8215"/>
<feGaussianBlur stdDeviation="1.41075"/>
<feComposite in2="hardAlpha" operator="out"/>
<feColorMatrix type="matrix" values="0 0 0 0 0 0 0 0 0 0 0 0 0 0 0 0 0 0 0.25 0"/>
<feBlend mode="normal" in2="BackgroundImageFix" result="effect1_dropShadow_2399_58"/>
<feBlend mode="normal" in="SourceGraphic" in2="effect1_dropShadow_2399_58" result="shape"/>
</filter>
<linearGradient id="paint0_linear_2399_58" x1="502.821" y1="-346" x2="502.821" y2="1437.5" gradientUnits="userSpaceOnUse">
<stop offset="0.150514" stop-color="#FFB75C"/>
<stop offset="0.94686" stop-color="#694C27"/>
</linearGradient>
</defs>
</svg>
